<svg xmlns="http://www.w3.org/2000/svg" viewBox="0 0 120 120" fill="none" stroke="#450b1d" stroke-linecap="round" stroke-linejoin="round">
  <!-- Plate -->
  <circle cx="60" cy="68" r="44" stroke-width="2.2"/>
  <circle cx="60" cy="68" r="36" stroke-width="1.2"/>
  <!-- Mini burger on plate -->
  <path d="M38 58 Q37 52 44 50 Q60 46 76 50 Q83 52 82 58 L80 64 Q78 67 74 67 L46 67 Q42 67 40 64 Z" stroke-width="1.8"/>
  <!-- Sesame seeds on bun -->
  <ellipse cx="50" cy="51" rx="2.5" ry="1.5" stroke-width="1.3" transform="rotate(-15 50 51)"/>
  <ellipse cx="60" cy="49" rx="2.5" ry="1.5" stroke-width="1.3" transform="rotate(5 60 49)"/>
  <ellipse cx="70" cy="51" rx="2.5" ry="1.5" stroke-width="1.3" transform="rotate(-10 70 51)"/>
  <!-- Patty -->
  <path d="M40 64 L80 64 L80 70 Q79 73 76 73 L44 73 Q41 73 40 70 Z" stroke-width="1.8"/>
  <!-- Bottom bun -->
  <path d="M40 73 L80 73 L80 78 Q79 82 75 82 L45 82 Q41 82 40 78 Z" stroke-width="1.8"/>
  <!-- French fries -->
  <rect x="84" y="52" width="6" height="28" rx="3" stroke-width="1.8"/>
  <rect x="93" y="55" width="6" height="25" rx="3" stroke-width="1.8"/>
  <rect x="75" y="56" width="6" height="24" rx="3" stroke-width="1.8"/>
  <!-- Fries box -->
  <path d="M72 80 Q72 76 76 76 L100 76 Q104 76 104 80 L106 94 Q106 97 102 97 L74 97 Q70 97 70 94 Z" stroke-width="1.8"/>
  <!-- Box stripes -->
  <line x1="80" y1="76" x2="78" y2="97" stroke-width="1.2"/>
  <line x1="88" y1="76" x2="88" y2="97" stroke-width="1.2"/>
  <line x1="96" y1="76" x2="98" y2="97" stroke-width="1.2"/>
  <!-- Star decoration -->
  <path d="M22 38 L24 32 L26 38 L32 38 L27 42 L29 48 L24 44 L19 48 L21 42 L16 38 Z" stroke-width="1.5"/>
  <!-- Small star -->
  <path d="M94 28 L95.5 23 L97 28 L102 28 L98 31 L99.5 36 L95.5 33 L91.5 36 L93 31 L89 28 Z" stroke-width="1.2"/>
  <!-- Smiley on plate bottom area -->
  <circle cx="60" cy="96" r="8" stroke-width="1.5"/>
  <path d="M56 98 Q60 102 64 98" stroke-width="1.2"/>
  <circle cx="57" cy="95" r="1" stroke-width="1.2"/>
  <circle cx="63" cy="95" r="1" stroke-width="1.2"/>
</svg>
