<svg xmlns="http://www.w3.org/2000/svg" viewBox="0 0 120 120" fill="none" stroke="#450b1d" stroke-linecap="round" stroke-linejoin="round">
  <!-- Beer tap handle -->
  <path d="M58 8 Q56 6 56 4 Q56 2 60 2 Q64 2 64 4 Q64 6 62 8 Z" stroke-width="1.8"/>
  <rect x="56" y="8" width="8" height="30" rx="2" stroke-width="2"/>
  <path d="M52 36 Q52 32 56 32 L64 32 Q68 32 68 36 L68 42 Q68 46 64 46 L56 46 Q52 46 52 42 Z" stroke-width="2"/>
  <!-- Tap spout -->
  <path d="M60 46 L60 56" stroke-width="2.5"/>
  <path d="M56 56 Q58 58 60 56 Q62 54 64 56 Q66 58 64 60 L60 62 L56 60 Q54 58 56 56Z" stroke-width="1.8"/>
  <!-- Beer flow -->
  <path d="M59 62 Q58 68 59 74" stroke-width="1.5" opacity="0.7"/>
  <path d="M61 62 Q62 68 61 74" stroke-width="1.5" opacity="0.7"/>
  <!-- Beer glass -->
  <path d="M30 72 Q28 68 32 66 L88 66 Q92 68 90 72 L84 108 Q83 112 78 112 L42 112 Q37 112 36 108 Z" stroke-width="2.2"/>
  <!-- Glass handle -->
  <path d="M84 80 Q96 80 97 88 Q98 96 86 96" stroke-width="2"/>
  <!-- Foam on top -->
  <path d="M30 72 Q35 64 42 68 Q48 72 54 66 Q60 60 66 66 Q72 72 78 66 Q84 60 88 68 Q92 74 90 72" stroke-width="1.8"/>
  <!-- Foam bubbles -->
  <circle cx="44" cy="67" r="3" stroke-width="1.3"/>
  <circle cx="60" cy="63" r="4" stroke-width="1.3"/>
  <circle cx="76" cy="66" r="3" stroke-width="1.3"/>
  <circle cx="52" cy="65" r="2" stroke-width="1.2"/>
  <circle cx="68" cy="65" r="2.5" stroke-width="1.2"/>
  <!-- Beer liquid lines -->
  <path d="M36 82 Q60 80 84 82" stroke-width="1" opacity="0.5"/>
  <path d="M35 92 Q60 90 85 92" stroke-width="1" opacity="0.5"/>
  <path d="M36 102 Q60 100 84 102" stroke-width="1" opacity="0.5"/>
  <!-- Bubbles rising in glass -->
  <circle cx="48" cy="98" r="1.5" stroke-width="1.2"/>
  <circle cx="60" cy="88" r="1.5" stroke-width="1.2"/>
  <circle cx="72" cy="96" r="1.5" stroke-width="1.2"/>
  <circle cx="54" cy="78" r="1" stroke-width="1"/>
  <circle cx="66" cy="84" r="1" stroke-width="1"/>
  <!-- Tap base/counter -->
  <rect x="44" y="4" width="32" height="6" rx="3" stroke-width="1.8"/>
  <line x1="40" y1="10" x2="80" y2="10" stroke-width="1.5"/>
</svg>
