<svg xmlns="http://www.w3.org/2000/svg" viewBox="0 0 120 120" fill="none" stroke="#450b1d" stroke-linecap="round" stroke-linejoin="round">
  <!-- Tall glass left -->
  <path d="M18 45 L24 105 Q24 110 30 110 L44 110 Q50 110 50 105 L54 45 Z" stroke-width="2"/>
  <!-- Ice cubes in left glass -->
  <rect x="24" y="70" width="10" height="10" rx="2" stroke-width="1.5" transform="rotate(-10 29 75)"/>
  <rect x="36" y="75" width="10" height="10" rx="2" stroke-width="1.5" transform="rotate(8 41 80)"/>
  <!-- Liquid level left -->
  <path d="M20 55 Q36 52 52 55" stroke-width="1" opacity="0.5"/>
  <!-- Straw left -->
  <line x1="44" y1="105" x2="52" y2="22" stroke-width="1.8"/>
  <!-- Straw stripes -->
  <line x1="45" y1="98" x2="52" y2="96" stroke-width="1" opacity="0.5"/>
  <line x1="46" y1="88" x2="53" y2="86" stroke-width="1" opacity="0.5"/>
  <line x1="47" y1="78" x2="54" y2="76" stroke-width="1" opacity="0.5"/>
  <line x1="48" y1="68" x2="55" y2="66" stroke-width="1" opacity="0.5"/>
  <line x1="49" y1="58" x2="56" y2="56" stroke-width="1" opacity="0.5"/>
  <!-- Lime wheel on left glass rim -->
  <circle cx="20" cy="48" r="8" stroke-width="1.5"/>
  <circle cx="20" cy="48" r="4" stroke-width="1"/>
  <line x1="20" y1="40" x2="20" y2="56" stroke-width="0.8"/>
  <line x1="12" y1="48" x2="28" y2="48" stroke-width="0.8"/>
  <line x1="14" y1="42" x2="26" y2="54" stroke-width="0.8"/>
  <line x1="14" y1="54" x2="26" y2="42" stroke-width="0.8"/>
  <!-- Cola can middle -->
  <rect x="50" y="50" width="24" height="50" rx="4" stroke-width="2"/>
  <!-- Can top dome -->
  <path d="M50 50 Q62 44 74 50" stroke-width="2"/>
  <!-- Can pull tab -->
  <path d="M62 46 Q64 44 66 46 L66 50 L62 50 Z" stroke-width="1.5"/>
  <path d="M60 44 Q62 42 64 44" stroke-width="1.3"/>
  <!-- Can label lines -->
  <line x1="52" y1="62" x2="72" y2="62" stroke-width="1.2"/>
  <line x1="52" y1="70" x2="72" y2="70" stroke-width="1"/>
  <line x1="54" y1="66" x2="70" y2="66" stroke-width="0.8"/>
  <!-- Can brand area -->
  <path d="M55 74 Q62 72 69 74" stroke-width="1"/>
  <path d="M56 78 Q62 76 68 78" stroke-width="1"/>
  <!-- Tall glass right -->
  <path d="M76 40 L80 105 Q80 110 86 110 L100 110 Q106 110 106 105 L112 40 Z" stroke-width="2"/>
  <!-- Liquid level right -->
  <path d="M78 52 Q94 49 110 52" stroke-width="1" opacity="0.5"/>
  <!-- Bubbles in right glass -->
  <circle cx="86" cy="72" r="2" stroke-width="1.2"/>
  <circle cx="94" cy="65" r="2" stroke-width="1.2"/>
  <circle cx="100" cy="78" r="2" stroke-width="1.2"/>
  <circle cx="88" cy="84" r="1.5" stroke-width="1"/>
  <circle cx="96" cy="88" r="1.5" stroke-width="1"/>
  <!-- Straw right with bend -->
  <path d="M100 108 L104 65 Q105 55 112 48" stroke-width="1.8"/>
  <!-- Cherry garnish on right -->
  <circle cx="112" cy="44" r="5" stroke-width="1.8"/>
  <path d="M112 39 Q110 32 106 28" stroke-width="1.5"/>
  <!-- Leaf on cherry stem -->
  <path d="M108 33 Q104 30 106 26 Q110 29 108 33Z" stroke-width="1.2"/>
  <!-- Bubbles rising -->
  <circle cx="84" cy="95" r="1.5" stroke-width="1"/>
  <circle cx="90" cy="80" r="1.5" stroke-width="1"/>
  <circle cx="102" cy="90" r="1.5" stroke-width="1"/>
</svg>
