<svg xmlns="http://www.w3.org/2000/svg" viewBox="0 0 120 120" fill="none" stroke="#450b1d" stroke-linecap="round" stroke-linejoin="round">
  <!-- Grill body -->
  <path d="M18 55 Q17 50 22 48 L98 44 Q103 43 104 48 L106 62 Q107 67 102 68 L20 72 Q15 73 15 68 Z" stroke-width="2.2"/>
  <!-- Grill grates - horizontal -->
  <line x1="18" y1="52" x2="103" y2="48" stroke-width="1.5"/>
  <line x1="17" y1="57" x2="103" y2="53" stroke-width="1.5"/>
  <line x1="17" y1="62" x2="103" y2="58" stroke-width="1.5"/>
  <line x1="16" y1="67" x2="103" y2="63" stroke-width="1.5"/>
  <!-- Grill grates - vertical -->
  <line x1="30" y1="48" x2="28" y2="70" stroke-width="1.5"/>
  <line x1="45" y1="47" x2="43" y2="69" stroke-width="1.5"/>
  <line x1="60" y1="46" x2="58" y2="68" stroke-width="1.5"/>
  <line x1="75" y1="45" x2="73" y2="68" stroke-width="1.5"/>
  <line x1="90" y1="44" x2="88" y2="67" stroke-width="1.5"/>
  <!-- Grill legs -->
  <line x1="28" y1="72" x2="22" y2="95" stroke-width="2.2"/>
  <line x1="92" y1="68" x2="98" y2="91" stroke-width="2.2"/>
  <!-- Feet -->
  <path d="M18 95 Q22 93 26 95" stroke-width="2"/>
  <path d="M94 91 Q98 89 102 91" stroke-width="2"/>
  <!-- Meat on grill - sausages/qebapa -->
  <path d="M22 50 Q23 46 30 45 Q37 44 38 48 Q39 52 32 53 Q25 54 22 50 Z" stroke-width="1.8"/>
  <path d="M42 49 Q43 45 50 44 Q57 43 58 47 Q59 51 52 52 Q45 53 42 49 Z" stroke-width="1.8"/>
  <path d="M62 48 Q63 44 70 43 Q77 42 78 46 Q79 50 72 51 Q65 52 62 48 Z" stroke-width="1.8"/>
  <!-- Grill marks on meat -->
  <line x1="26" y1="49" x2="27" y2="51" stroke-width="1"/>
  <line x1="30" y1="48" x2="31" y2="50" stroke-width="1"/>
  <line x1="34" y1="48" x2="35" y2="50" stroke-width="1"/>
  <line x1="46" y1="48" x2="47" y2="50" stroke-width="1"/>
  <line x1="50" y1="47" x2="51" y2="49" stroke-width="1"/>
  <line x1="54" y1="47" x2="55" y2="49" stroke-width="1"/>
  <!-- Flames -->
  <path d="M35 43 Q33 36 37 30 Q36 37 40 33 Q39 39 43 35 Q41 41 44 38 Q43 43 40 44" stroke-width="1.5"/>
  <path d="M60 42 Q58 35 62 29 Q61 36 65 32 Q64 38 67 34 Q66 40 63 43" stroke-width="1.5"/>
  <path d="M80 41 Q79 35 82 30 Q81 37 85 33 Q84 39 86 36 Q85 41 83 43" stroke-width="1.5"/>
  <!-- Smoke wisps -->
  <path d="M38 28 Q36 22 39 17 Q41 12 38 8" stroke-width="1" opacity="0.5"/>
  <path d="M63 28 Q65 22 62 16 Q60 11 63 7" stroke-width="1" opacity="0.5"/>
  <!-- Tongs -->
  <path d="M95 30 L105 15" stroke-width="1.8"/>
  <path d="M98 32 L110 18" stroke-width="1.8"/>
  <path d="M95 30 Q96 33 98 32" stroke-width="1.5"/>
  <path d="M105 15 Q108 14 110 18" stroke-width="1.5"/>
</svg>
