<svg xmlns="http://www.w3.org/2000/svg" viewBox="0 0 120 120" fill="none" stroke="#450b1d" stroke-linecap="round" stroke-linejoin="round">
  <!-- Top bun -->
  <path d="M22 52 Q20 42 35 36 Q60 28 85 36 Q100 42 98 52 L96 58 Q94 62 90 62 L30 62 Q26 62 24 58 Z" stroke-width="2.2"/>
  <!-- Sesame seeds -->
  <ellipse cx="45" cy="40" rx="3.5" ry="2" stroke-width="1.5" transform="rotate(-20 45 40)"/>
  <ellipse cx="60" cy="36" rx="3.5" ry="2" stroke-width="1.5" transform="rotate(10 60 36)"/>
  <ellipse cx="75" cy="40" rx="3.5" ry="2" stroke-width="1.5" transform="rotate(-15 75 40)"/>
  <ellipse cx="52" cy="44" rx="3" ry="1.8" stroke-width="1.5" transform="rotate(5 52 44)"/>
  <ellipse cx="68" cy="43" rx="3" ry="1.8" stroke-width="1.5" transform="rotate(-10 68 43)"/>
  <!-- Lettuce layer -->
  <path d="M22 63 Q28 60 35 63 Q42 66 50 62 Q58 58 66 62 Q74 66 82 62 Q90 58 98 62 L98 68 Q90 65 82 68 Q74 72 66 68 Q58 64 50 68 Q42 72 34 68 Q28 65 22 68 Z" stroke-width="1.8"/>
  <!-- Lettuce frilly edge -->
  <path d="M22 63 Q25 60 28 63 Q31 66 34 63 Q37 60 40 63 Q43 66 46 63 Q49 60 52 63 Q55 66 58 63 Q61 60 64 63 Q67 66 70 63 Q73 60 76 63 Q79 66 82 63 Q85 60 88 63 Q91 66 94 63 Q97 60 99 63" stroke-width="1.2"/>
  <!-- Tomato layer -->
  <path d="M24 68 L96 68 L96 76 Q95 78 92 78 L28 78 Q25 78 24 76 Z" stroke-width="1.8"/>
  <!-- Tomato texture -->
  <path d="M35 71 Q60 70 85 71" stroke-width="1" opacity="0.6"/>
  <path d="M30 74 Q60 73 90 74" stroke-width="1" opacity="0.6"/>
  <!-- Meat patty -->
  <path d="M20 78 Q19 76 22 75 L98 75 Q101 76 100 78 L99 86 Q98 89 94 90 L26 90 Q22 89 21 86 Z" stroke-width="2"/>
  <!-- Patty grill marks -->
  <path d="M30 79 L28 88" stroke-width="1.5"/>
  <path d="M45 78 L43 87" stroke-width="1.5"/>
  <path d="M60 78 L58 87" stroke-width="1.5"/>
  <path d="M75 78 L73 87" stroke-width="1.5"/>
  <path d="M90 78 L88 87" stroke-width="1.5"/>
  <!-- Bottom bun -->
  <path d="M20 90 L100 90 L100 98 Q99 103 94 104 L26 104 Q21 103 20 98 Z" stroke-width="2.2"/>
  <!-- Bun texture -->
  <path d="M26 95 Q60 94 94 95" stroke-width="1" opacity="0.5"/>
  <!-- Cheese drip -->
  <path d="M96 78 Q100 80 102 84 Q103 88 100 90" stroke-width="1.5"/>
  <path d="M24 78 Q20 80 18 84 Q17 88 20 90" stroke-width="1.5"/>
  <!-- Toothpick -->
  <line x1="60" y1="28" x2="60" y2="100" stroke-width="1.2" stroke-dasharray="2,2"/>
  <path d="M56 28 Q60 24 64 28" stroke-width="1.5"/>
</svg>
