<svg xmlns="http://www.w3.org/2000/svg" viewBox="0 0 120 120" fill="none" stroke="#450b1d" stroke-linecap="round" stroke-linejoin="round">
  <!-- Salad bowl -->
  <path d="M15 58 Q14 52 20 50 L100 50 Q106 52 105 58 Q100 95 60 100 Q20 95 15 58Z" stroke-width="2.2"/>
  <!-- Bowl rim -->
  <path d="M12 56 Q11 50 18 48 L102 48 Q109 50 108 56 L106 62 Q104 66 100 66 L20 66 Q16 66 14 62 Z" stroke-width="2"/>
  <!-- Salad bowl servers/tongs sticking out -->
  <path d="M30 48 L22 22" stroke-width="1.8"/>
  <path d="M22 22 Q18 18 22 14 Q26 10 30 14 Q32 18 30 22" stroke-width="1.5"/>
  <path d="M36 48 L30 22" stroke-width="1.8"/>
  <path d="M30 22 Q28 17 32 14 Q36 11 38 15 Q40 19 37 22" stroke-width="1.5"/>
  <!-- Lettuce leaves -->
  <path d="M25 58 Q30 52 38 55 Q42 58 38 63 Q33 67 28 63 Q23 59 25 58Z" stroke-width="1.5"/>
  <path d="M38 55 Q40 50 48 52 Q54 55 50 60 Q46 65 40 62 Q35 59 38 55Z" stroke-width="1.5"/>
  <path d="M55 53 Q60 48 68 51 Q73 55 69 60 Q64 64 58 61 Q53 57 55 53Z" stroke-width="1.5"/>
  <path d="M70 55 Q75 50 83 53 Q88 57 84 62 Q79 66 73 63 Q68 59 70 55Z" stroke-width="1.5"/>
  <!-- Tomatoes -->
  <circle cx="42" cy="70" r="6" stroke-width="1.8"/>
  <path d="M40 64 Q42 62 44 64" stroke-width="1.2"/>
  <line x1="42" y1="62" x2="42" y2="60" stroke-width="1.2"/>
  <circle cx="72" cy="72" r="6" stroke-width="1.8"/>
  <path d="M70 66 Q72 64 74 66" stroke-width="1.2"/>
  <line x1="72" y1="64" x2="72" y2="62" stroke-width="1.2"/>
  <!-- Cucumber slices -->
  <ellipse cx="57" cy="75" rx="7" ry="4" stroke-width="1.8" transform="rotate(-20 57 75)"/>
  <ellipse cx="57" cy="75" rx="4" ry="2.5" stroke-width="1" transform="rotate(-20 57 75)"/>
  <!-- Cheese chunks -->
  <path d="M78 62 Q82 60 86 62 L88 68 Q88 70 85 71 L81 71 Q78 70 78 68 Z" stroke-width="1.5"/>
  <path d="M30 72 Q34 70 37 72 L39 77 Q39 79 36 80 L33 80 Q30 79 30 77 Z" stroke-width="1.5"/>
  <!-- Olives -->
  <ellipse cx="90" cy="72" rx="4" ry="3" stroke-width="1.5"/>
  <circle cx="90" cy="72" r="1.5" stroke-width="1"/>
  <ellipse cx="48" cy="78" rx="4" ry="3" stroke-width="1.5"/>
  <circle cx="48" cy="78" r="1.5" stroke-width="1"/>
  <!-- Dressing drizzle -->
  <path d="M95 56 Q100 60 98 68" stroke-width="1.5"/>
  <path d="M98 68 Q96 74 100 78" stroke-width="1.2"/>
  <!-- Herbs on top -->
  <path d="M62 55 L60 48" stroke-width="1.2"/>
  <path d="M60 48 Q57 44 59 41" stroke-width="1"/>
  <path d="M60 48 Q63 44 62 41" stroke-width="1"/>
</svg>
