<svg xmlns="http://www.w3.org/2000/svg" viewBox="0 0 120 120" fill="none" stroke="#450b1d" stroke-linecap="round" stroke-linejoin="round">
  <!-- Terracotta pot body -->
  <path d="M28 55 Q25 52 28 48 L38 44 Q60 40 82 44 L92 48 Q95 52 92 55 L88 90 Q87 95 82 96 L38 96 Q33 95 32 90 Z" stroke-width="2.2"/>
  <!-- Pot rim -->
  <path d="M24 55 Q22 51 26 49 L38 45 Q60 41 82 45 L94 49 Q98 52 96 56 L94 60 Q90 64 84 63 L36 64 Q30 64 26 60 Z" stroke-width="2"/>
  <!-- Pot handles -->
  <path d="M28 62 Q18 62 16 55 Q14 48 22 46" stroke-width="1.8"/>
  <path d="M92 62 Q102 62 104 55 Q106 48 98 46" stroke-width="1.8"/>
  <!-- Pot texture lines -->
  <path d="M35 70 Q60 68 85 70" stroke-width="1" opacity="0.5"/>
  <path d="M34 78 Q60 76 86 78" stroke-width="1" opacity="0.5"/>
  <path d="M35 86 Q60 84 85 86" stroke-width="1" opacity="0.5"/>
  <!-- Steam wisps -->
  <path d="M45 42 Q43 34 46 26 Q48 20 45 14" stroke-width="1.5"/>
  <path d="M60 40 Q62 32 59 24 Q57 18 60 12" stroke-width="1.5"/>
  <path d="M75 42 Q77 34 74 26 Q72 20 75 14" stroke-width="1.5"/>
  <!-- Herbs sticking out -->
  <path d="M48 44 L44 30" stroke-width="1.5"/>
  <path d="M44 30 Q40 26 42 22" stroke-width="1.2"/>
  <path d="M44 30 Q48 25 46 21" stroke-width="1.2"/>
  <path d="M44 30 Q42 32 40 28" stroke-width="1"/>
  <path d="M72 43 L75 29" stroke-width="1.5"/>
  <path d="M75 29 Q72 24 74 20" stroke-width="1.2"/>
  <path d="M75 29 Q79 25 78 21" stroke-width="1.2"/>
  <path d="M75 29 Q78 31 80 27" stroke-width="1"/>
  <!-- Wooden spoon -->
  <path d="M88 38 L108 12" stroke-width="2"/>
  <path d="M88 38 Q84 42 86 46 Q90 50 94 46 Q98 42 94 38 Q91 35 88 38Z" stroke-width="1.8"/>
  <!-- Ladle bowl texture -->
  <path d="M88 42 Q90 44 92 42" stroke-width="1"/>
  <!-- Vegetables/ingredients around pot -->
  <path d="M18 80 Q16 74 20 70 Q24 66 26 72 Q28 78 24 82 Q20 86 18 80Z" stroke-width="1.5"/>
  <line x1="22" y1="66" x2="22" y2="60" stroke-width="1.5"/>
  <path d="M96 82 Q94 76 98 72 Q102 68 104 74 Q106 80 102 84 Q98 88 96 82Z" stroke-width="1.5"/>
  <line x1="100" y1="68" x2="100" y2="62" stroke-width="1.5"/>
</svg>
