<svg xmlns="http://www.w3.org/2000/svg" viewBox="0 0 120 120" fill="none" stroke="#450b1d" stroke-linecap="round" stroke-linejoin="round">
  <!-- Wine bottle -->
  <path d="M46 100 Q38 97 37 87 L39 60 Q39 54 44 50 L44 35 Q44 30 48 28 L58 28 Q62 30 62 35 L62 50 Q67 54 67 60 L69 87 Q68 97 60 100 Z" stroke-width="2.2"/>
  <!-- Bottle neck -->
  <rect x="46" y="18" width="14" height="12" rx="3" stroke-width="2"/>
  <!-- Cork -->
  <path d="M44 18 Q53 14 62 18 L62 22 Q53 26 44 22 Z" stroke-width="1.8"/>
  <!-- Foil cap detail -->
  <path d="M44 22 Q53 24 62 22" stroke-width="1.2"/>
  <!-- Wine label -->
  <rect x="39" y="62" width="28" height="24" rx="2" stroke-width="1.5"/>
  <!-- Label lines -->
  <line x1="39" y1="70" x2="67" y2="70" stroke-width="1"/>
  <line x1="42" y1="74" x2="64" y2="74" stroke-width="0.8"/>
  <line x1="42" y1="78" x2="64" y2="78" stroke-width="0.8"/>
  <!-- Label ornament -->
  <path d="M53 65 Q53 63 55 63 Q57 63 57 65 Q57 67 55 67 Q53 67 53 65Z" stroke-width="1"/>
  <!-- Liquid level -->
  <path d="M40 57 Q53 54 66 57" stroke-width="1" opacity="0.5"/>
  <!-- Wine glass -->
  <path d="M78 28 Q70 45 72 65 Q74 78 84 82 L82 108" stroke-width="2"/>
  <path d="M110 28 Q118 45 116 65 Q114 78 104 82 L106 108" stroke-width="2"/>
  <!-- Glass top -->
  <path d="M78 28 Q94 22 110 28" stroke-width="2"/>
  <!-- Glass base -->
  <path d="M76 108 Q94 104 112 108" stroke-width="2"/>
  <!-- Wine in glass -->
  <path d="M80 36 Q94 32 108 36" stroke-width="1.2"/>
  <path d="M79 45 Q94 41 109 45 Q108 60 104 68 Q94 74 84 68 Q80 60 79 45Z" stroke-width="1" opacity="0.4"/>
  <!-- Grape cluster beside bottle -->
  <circle cx="18" cy="55" r="4.5" stroke-width="1.5"/>
  <circle cx="26" cy="52" r="4.5" stroke-width="1.5"/>
  <circle cx="22" cy="44" r="4.5" stroke-width="1.5"/>
  <circle cx="14" cy="46" r="4" stroke-width="1.3"/>
  <circle cx="30" cy="44" r="4" stroke-width="1.3"/>
  <circle cx="18" cy="37" r="4" stroke-width="1.3"/>
  <circle cx="26" cy="37" r="4" stroke-width="1.3"/>
  <circle cx="22" cy="30" r="3.5" stroke-width="1.2"/>
  <!-- Grape vine/tendril -->
  <path d="M22 26 Q20 20 24 14 Q28 8 24 4" stroke-width="1.5"/>
  <path d="M24 18 Q20 14 22 10" stroke-width="1"/>
  <path d="M24 18 Q28 14 26 10" stroke-width="1"/>
  <!-- Leaf -->
  <path d="M16 20 Q10 14 12 8 Q18 12 16 20Z" stroke-width="1.3"/>
  <line x1="14" y1="14" x2="16" y2="20" stroke-width="0.8"/>
</svg>
