<svg width="38" height="36" viewBox="0 0 38 36" fill="none" xmlns="http://www.w3.org/2000/svg">
<path d="M19 -0.000976563C29.4934 -0.000976563 38 8.0586 38 18C37.9997 27.9412 29.4932 36 19 36C8.50676 36 0.000276103 27.9412 0 18C0 8.0586 8.50659 -0.000975403 19 -0.000976563ZM22.7324 7.80859C20.6377 7.80859 19.8773 8.02768 19.1113 8.43652C18.3548 8.83744 17.7359 9.45634 17.335 10.2129C16.9263 10.9787 16.708 11.7388 16.708 13.833V16.0322H12.0088V18.3818H16.708V28.9561H19.0576V18.3818H23.7568L24.3437 16.0322H19.0576V13.833C19.0576 12.2777 19.1488 11.8041 19.4072 11.3213C19.5882 10.9738 19.8715 10.6903 20.2187 10.5088C20.7028 10.2503 21.177 10.1582 22.7324 10.1582H24.3437V7.98535C23.8833 7.86791 23.3463 7.80861 22.7324 7.80859Z" fill="#65171D"/>
</svg>
