<svg width="38" height="38" viewBox="0 0 38 38" fill="none" xmlns="http://www.w3.org/2000/svg">
<path d="M19 0C29.4933 0 37.9999 8.50592 38 18.999C38 29.4922 29.4934 37.999 19 37.999C8.50677 37.9989 0 29.4921 0 18.999C9.41724e-05 8.50601 8.50682 0.000146382 19 0ZM11.9199 9.21191C11.2104 9.21191 10.53 9.49446 10.0283 9.99609C9.5266 10.4978 9.24414 11.1782 9.24414 11.8877V25.6641C9.24414 26.3736 9.5266 27.054 10.0283 27.5557C10.53 28.0573 11.2105 28.3389 11.9199 28.3389H25.6963C26.4058 28.3389 27.0862 28.0573 27.5879 27.5557C28.0896 27.054 28.3721 26.3736 28.3721 25.6641V11.8877C28.3721 11.1782 28.0896 10.4978 27.5879 9.99609C27.0862 9.49443 26.4058 9.21191 25.6963 9.21191H11.9199ZM25.6963 10.2822C26.122 10.2822 26.531 10.4519 26.832 10.7529C27.1328 11.0539 27.3018 11.4622 27.3018 11.8877V25.6641C27.3018 26.0896 27.1328 26.4978 26.832 26.7988C26.531 27.0999 26.122 27.2695 25.6963 27.2695H11.9199C11.4942 27.2695 11.0852 27.0999 10.7842 26.7988C10.4833 26.4978 10.3145 26.0896 10.3145 25.6641V11.8877C10.3145 11.4622 10.4834 11.0539 10.7842 10.7529C11.0852 10.4519 11.4942 10.2822 11.9199 10.2822H25.6963ZM20.6973 14.2324C19.7991 13.8599 18.8102 13.762 17.8564 13.9512C16.9027 14.1404 16.0268 14.6089 15.3389 15.2959C14.6509 15.9829 14.1817 16.8581 13.9912 17.8115C13.8008 18.7649 13.8973 19.7538 14.2686 20.6523C14.6398 21.5509 15.2694 22.3194 16.0771 22.8604C16.885 23.4013 17.8354 23.6903 18.8076 23.6914C20.1121 23.6914 21.3632 23.1737 22.2861 22.252C23.2091 21.3302 23.7288 20.0798 23.7305 18.7754C23.7306 17.8032 23.4432 16.8525 22.9033 16.0439C22.3634 15.2353 21.5954 14.6049 20.6973 14.2324ZM18.8076 14.9238C19.8294 14.9238 20.8097 15.3293 21.5322 16.0518C22.2546 16.7741 22.66 17.7538 22.6602 18.7754C22.6591 19.5358 22.4329 20.2793 22.0098 20.9111C21.5867 21.5428 20.9858 22.0347 20.2832 22.3252C19.5805 22.6157 18.8073 22.6916 18.0615 22.543C17.3158 22.3943 16.6305 22.0279 16.0928 21.4902C15.5553 20.9526 15.1886 20.268 15.04 19.5225C14.8914 18.7768 14.9673 18.0035 15.2578 17.3008C15.5483 16.5981 16.041 15.9973 16.6729 15.5742C17.3046 15.1512 18.0473 14.925 18.8076 14.9238ZM24.373 12.0928C23.7378 12.0928 23.2228 12.6079 23.2227 13.2432C23.2227 13.8785 23.7377 14.3936 24.373 14.3936C25.0083 14.3934 25.5234 13.8784 25.5234 13.2432C25.5233 12.608 25.0082 12.0929 24.373 12.0928Z" fill="#65171D"/>
</svg>
