<svg width="689" height="459" viewBox="0 0 689 459" fill="none" xmlns="http://www.w3.org/2000/svg">
<path d="M349.85 202.683C347.412 201.279 344.778 200.198 342.028 199.592C340.624 199.282 339.274 198.968 337.84 198.894C336.429 198.821 335.006 198.88 333.603 199.069C326.858 199.982 321.043 203.998 316.666 209.047C311.916 214.525 308.934 221.293 306.394 228.013C306.084 228.83 305.781 229.647 305.483 230.467C305.327 230.134 305.182 229.794 305.038 229.459C304.82 228.952 303.973 229.092 303.964 229.659C303.957 230.083 303.913 230.538 303.964 230.96C303.986 231.171 303.92 231.369 303.952 231.593C303.989 231.857 304.074 232.126 304.133 232.385C304.335 233.241 304.565 234.09 304.824 234.93C305.354 236.652 305.967 238.348 306.685 240C308.108 243.273 309.931 246.387 312.143 249.191C316.159 254.279 321.541 258.273 327.678 260.407C333.668 262.491 340.149 262.636 346.159 260.561C352.064 258.521 357.251 254.459 360.834 249.361C364.361 244.342 366.192 238.274 366.289 232.153C366.385 226.06 364.875 219.999 361.855 214.702C359.027 209.745 354.795 205.536 349.85 202.683ZM358.073 212.166C359.7 214.392 361.045 216.949 362.038 219.602C362.539 220.935 362.929 222.186 363.28 223.611C363.629 225.016 363.888 226.443 364.056 227.88C364.226 229.342 364.29 230.632 364.262 232.114C364.235 233.556 364.113 234.992 363.893 236.418C363.468 239.155 362.603 241.983 361.345 244.556C358.807 249.749 354.463 254.204 349.375 256.937C344.101 259.771 338.196 260.687 332.288 259.565C326.588 258.482 321.07 255.461 316.928 251.459C312.065 246.761 308.643 240.691 306.679 234.244C306.614 234.033 306.552 233.82 306.49 233.608C308.875 226.994 311.271 220.302 315.149 214.388C318.658 209.038 323.528 204.327 329.573 201.999C332.208 200.985 335.026 200.521 337.812 200.629C339.105 200.68 340.436 200.735 341.7 201.022C343.008 201.32 344.294 201.724 345.54 202.222C348.044 203.223 350.384 204.611 352.507 206.268C354.658 207.946 356.466 209.97 358.07 212.169L358.073 212.166Z" fill="#65171D"/>
<path d="M371.969 121.192C367.003 118.328 361.118 117.121 355.427 117.759C349.758 118.397 344.218 120.793 339.961 124.609C335.639 128.483 332.883 133.771 331.765 139.433C330.666 145 331.246 150.935 333.502 156.152C334.046 157.409 334.694 158.619 335.439 159.769C335.674 160.131 336.043 160.377 336.456 160.338C337.016 161.13 337.62 161.892 338.258 162.617C340.105 164.71 342.237 166.564 344.608 168.044C349.434 171.058 355.215 172.595 360.893 172.185C366.739 171.76 372.313 169.164 376.662 165.279C381.018 161.384 384.254 156.149 385.452 150.407C386.636 144.732 385.803 138.788 383.286 133.578C380.83 128.492 376.885 124.026 371.969 121.194V121.192ZM379.738 130.82C381.17 133.078 382.29 135.625 382.98 138.106C383.343 139.41 383.611 140.741 383.774 142.086C383.813 142.407 383.846 142.731 383.873 143.054C383.887 143.217 383.898 143.378 383.91 143.541C383.914 143.612 383.919 143.685 383.924 143.756C383.914 143.6 383.928 143.885 383.933 143.956C383.963 144.633 383.967 145.308 383.944 145.985C383.747 151.511 381.585 156.657 378.037 160.921C377.583 161.467 377.291 161.791 376.768 162.33C376.277 162.837 375.765 163.324 375.237 163.792C374.709 164.26 374.163 164.708 373.601 165.134C373.334 165.336 373.064 165.534 372.791 165.727C372.669 165.811 372.547 165.896 372.423 165.979C372.332 166.041 372.24 166.103 372.146 166.165C372.104 166.192 372.086 166.204 372.079 166.211C372.07 166.218 372.049 166.229 372.003 166.257C369.685 167.73 367.106 168.905 364.556 169.557C361.882 170.241 359.319 170.44 356.595 170.197C353.914 169.959 351.429 169.417 348.893 168.373C344.353 166.505 340.266 163.475 337.347 159.521C337.399 159.31 337.386 159.089 337.264 158.903C336.518 157.754 335.869 156.547 335.322 155.289C334.767 154.011 334.395 152.918 334.062 151.61C333.388 148.962 333.144 146.384 333.278 143.717C333.413 140.959 333.902 138.469 334.834 135.882C335.742 133.36 336.956 131.123 338.657 128.965C339.472 127.932 340.286 127.067 341.338 126.124C341.836 125.676 342.352 125.25 342.884 124.843C343.144 124.646 343.405 124.453 343.672 124.265C343.818 124.162 343.968 124.059 344.119 123.958C344.179 123.916 344.238 123.877 344.3 123.836C344.33 123.815 344.351 123.801 344.367 123.792C344.383 123.783 344.404 123.769 344.436 123.749C345.586 123.021 346.781 122.376 348.025 121.825C349.285 121.268 350.481 120.843 351.725 120.504C354.343 119.788 357.019 119.446 359.663 119.48C361.042 119.498 362.406 119.62 363.771 119.808C365.086 119.989 366.365 120.359 367.611 120.809C370.158 121.729 372.506 123.118 374.594 124.839C376.637 126.523 378.354 128.626 379.74 130.813L379.738 130.82Z" fill="#65171D"/>
<path d="M459.207 256.689C454.24 253.825 448.356 252.618 442.664 253.256C436.995 253.894 431.455 256.29 427.198 260.106C422.877 263.98 420.12 269.268 419.003 274.93C417.903 280.497 418.484 286.432 420.74 291.649C421.284 292.907 421.931 294.116 422.677 295.266C422.911 295.628 423.281 295.874 423.694 295.835C424.254 296.627 424.857 297.389 425.495 298.114C427.343 300.207 429.475 302.061 431.846 303.542C436.672 306.555 442.453 308.093 448.131 307.682C453.976 307.257 459.551 304.661 463.9 300.776C468.256 296.881 471.492 291.647 472.69 285.904C473.874 280.229 473.041 274.285 470.523 269.075C468.067 263.989 464.122 259.523 459.207 256.691V256.689ZM466.975 266.314C468.407 268.573 469.527 271.12 470.218 273.601C470.58 274.905 470.849 276.236 471.012 277.58C471.051 277.902 471.083 278.225 471.111 278.549C471.124 278.712 471.136 278.873 471.147 279.036C471.152 279.107 471.157 279.18 471.161 279.251C471.152 279.095 471.166 279.38 471.17 279.451C471.2 280.128 471.205 280.803 471.182 281.48C470.984 287.006 468.823 292.151 465.274 296.416C464.82 296.962 464.529 297.285 464.005 297.825C463.549 298.295 463.074 298.747 462.585 299.186C460.905 298.777 459.209 298.493 457.669 297.627C456.209 296.808 454.958 295.491 454.568 293.822C454.387 293.049 454.398 292.257 454.662 291.504C454.958 290.662 455.518 289.941 456.111 289.283C457.276 287.984 458.619 286.795 459.223 285.108C460.45 281.677 458.665 278.088 456.599 275.409C454.284 272.405 451.075 269.493 450.508 265.541C450.249 263.73 450.676 261.91 451.966 260.575C453.088 259.413 454.738 258.711 456.333 259.248C456.595 259.335 456.735 258.934 456.473 258.844C453.565 257.846 450.612 260.425 450.077 263.2C449.329 267.092 451.837 270.597 454.167 273.424C456.576 276.348 459.587 279.917 458.72 284.023C457.96 287.617 453.267 289.235 453.671 293.242C453.859 295.101 455.179 296.794 456.7 297.795C457.657 298.426 458.736 298.855 459.835 299.167C460.549 299.369 461.281 299.544 462.018 299.672C461.632 299.998 461.242 300.319 460.841 300.625C460.574 300.827 460.304 301.024 460.03 301.217C459.909 301.302 459.787 301.387 459.663 301.469C459.571 301.531 459.48 301.593 459.386 301.655C459.344 301.683 459.326 301.694 459.319 301.701C459.31 301.708 459.289 301.719 459.243 301.747C456.925 303.22 454.346 304.395 451.796 305.047C449.122 305.731 446.559 305.931 443.835 305.687C441.154 305.449 438.669 304.907 436.133 303.863C431.593 301.995 427.506 298.965 424.586 295.011C424.639 294.8 424.625 294.58 424.504 294.394C423.758 293.244 423.108 292.037 422.562 290.779C422.007 289.501 421.635 288.408 421.302 287.1C420.628 284.452 420.384 281.874 420.517 279.208C420.653 276.449 421.142 273.959 422.073 271.373C422.982 268.85 424.196 266.613 425.897 264.455C426.712 263.423 427.526 262.557 428.577 261.614C429.075 261.167 429.592 260.74 430.124 260.334C430.384 260.136 430.645 259.943 430.911 259.755C431.058 259.652 431.208 259.549 431.359 259.448C431.419 259.406 431.478 259.367 431.54 259.326C431.57 259.305 431.591 259.292 431.607 259.282C431.623 259.273 431.644 259.26 431.676 259.239C432.825 258.511 434.021 257.866 435.265 257.316C436.525 256.758 437.721 256.333 438.965 255.994C441.583 255.278 444.259 254.936 446.903 254.97C448.282 254.989 449.646 255.11 451.011 255.298C452.326 255.48 453.604 255.849 454.851 256.299C457.398 257.219 459.746 258.608 461.834 260.329C463.877 262.014 465.593 264.116 466.98 266.303L466.975 266.314Z" fill="#65171D"/>
<path d="M481.505 155.583C474.953 151.805 467.189 150.21 459.682 151.055C452.202 151.895 444.893 155.057 439.279 160.092C433.578 165.203 429.943 172.18 428.467 179.648C427.017 186.994 427.781 194.823 430.758 201.703C431.476 203.362 432.33 204.957 433.312 206.474C433.622 206.952 434.108 207.278 434.652 207.227C435.391 208.271 436.188 209.276 437.03 210.233C439.467 212.997 442.281 215.441 445.407 217.392C451.773 221.367 459.399 223.398 466.893 222.854C474.604 222.294 481.959 218.87 487.694 213.743C493.439 208.606 497.71 201.698 499.289 194.125C500.849 186.639 499.752 178.794 496.432 171.923C493.191 165.215 487.988 159.324 481.503 155.585L481.505 155.583ZM491.754 168.283C493.643 171.264 495.121 174.624 496.034 177.895C496.514 179.616 496.865 181.372 497.081 183.143C497.131 183.568 497.175 183.995 497.212 184.422C497.23 184.635 497.246 184.848 497.26 185.062C497.267 185.156 497.271 185.252 497.276 185.347C497.265 185.142 497.283 185.516 497.288 185.608C497.327 186.501 497.333 187.391 497.301 188.284C497.04 195.575 494.189 202.362 489.507 207.987C488.908 208.707 488.523 209.134 487.832 209.846C487.183 210.513 486.508 211.158 485.81 211.776C485.113 212.393 484.392 212.985 483.651 213.547C483.299 213.814 482.944 214.075 482.583 214.328C482.423 214.44 482.262 214.553 482.101 214.663C481.98 214.745 481.858 214.826 481.737 214.908C481.682 214.945 481.659 214.961 481.649 214.968C481.636 214.977 481.608 214.993 481.551 215.03C478.494 216.974 475.09 218.523 471.726 219.384C468.196 220.288 464.816 220.55 461.224 220.23C457.687 219.916 454.408 219.2 451.064 217.825C445.074 215.361 439.683 211.365 435.832 206.148C435.901 205.871 435.882 205.579 435.724 205.334C434.742 203.817 433.881 202.224 433.163 200.567C432.431 198.88 431.942 197.441 431.501 195.715C430.611 192.22 430.292 188.821 430.464 185.303C430.643 181.663 431.286 178.381 432.516 174.969C433.714 171.643 435.318 168.689 437.56 165.844C438.634 164.48 439.711 163.34 441.094 162.096C441.751 161.506 442.432 160.941 443.135 160.407C443.477 160.145 443.823 159.893 444.174 159.645C444.369 159.507 444.567 159.372 444.764 159.239C444.844 159.186 444.923 159.133 445.003 159.08C445.042 159.055 445.069 159.037 445.09 159.023C445.111 159.009 445.141 158.991 445.182 158.965C446.699 158.006 448.278 157.155 449.916 156.43C451.578 155.693 453.157 155.133 454.796 154.685C458.252 153.74 461.782 153.29 465.268 153.336C467.085 153.359 468.887 153.522 470.686 153.77C472.419 154.008 474.108 154.495 475.751 155.089C479.111 156.303 482.209 158.135 484.963 160.404C487.658 162.626 489.923 165.401 491.75 168.283H491.754Z" fill="#65171D"/>
<path d="M510.442 80.0223C481.229 55.4383 444.289 41.0326 406.112 39.7703C370.929 38.6068 335.375 48.0392 305.696 67.0441C276.492 85.7461 253.182 113.146 238.756 144.629C238.609 144.443 238.386 144.308 238.079 144.282C233.344 143.899 228.612 143.516 223.877 143.121C219.195 142.733 214.514 142.286 209.825 142.01C208.512 141.932 207.199 141.879 205.887 141.815C205.23 141.783 204.574 141.751 203.918 141.728C203.484 141.712 203.062 141.756 202.639 141.808C202.385 140.714 202.013 139.644 201.506 138.595C200.399 136.307 198.602 134.496 196.388 133.269C194.086 131.993 191.543 131.249 189.035 130.503C183.265 128.789 177.498 127.072 171.723 125.369C160.138 121.952 148.553 118.537 136.961 115.138C125.408 111.751 113.855 108.368 102.302 104.985C100.505 104.459 98.7079 103.927 96.911 103.399C89.8401 99.8075 80.7197 101.302 74.7482 106.442C74.6472 106.497 74.5577 106.575 74.4865 106.667C74.2892 106.844 74.0941 107.023 73.9059 107.209C67.5992 113.33 66.1855 123.49 70.0067 131.313C74.739 141.003 86.0464 144.064 95.5753 146.795C107.126 150.107 118.677 153.419 130.227 156.726C141.778 160.035 153.329 163.345 164.882 166.654C167.769 167.482 170.658 168.304 173.548 169.128C176.123 169.862 178.689 170.679 181.303 171.265C183.593 171.779 185.968 172.095 188.305 171.678C190.827 171.226 193.074 169.872 194.781 167.98C194.903 167.845 195.018 167.703 195.135 167.565C195.344 167.698 195.559 167.822 195.773 167.941C196.301 168.24 196.828 168.538 197.356 168.837C198.391 169.419 199.424 170.005 200.459 170.588C202.55 171.767 204.645 172.942 206.745 174.106C210.906 176.408 215.046 178.746 219.239 180.991C219.82 181.301 220.4 181.613 220.981 181.923C221.571 182.239 222.22 182.416 222.81 182.724C223.391 183.024 223.939 183.396 224.511 183.717C225.139 184.071 225.766 184.553 226.505 184.576C227.109 184.594 227.354 183.965 227.044 183.508C226.689 182.981 226.087 182.749 225.543 182.453C225.009 182.161 224.474 181.877 223.932 181.599C223.43 181.342 223.007 181.002 222.551 180.674C222.039 180.309 221.47 180.02 220.924 179.706C218.84 178.51 216.742 177.344 214.642 176.181C210.486 173.872 206.334 171.554 202.157 169.282C201.001 168.653 199.846 168.024 198.69 167.395C198.111 167.081 197.533 166.766 196.957 166.452C196.725 166.326 196.491 166.209 196.257 166.092C197.274 164.602 198.088 162.98 198.8 161.32C198.958 161.541 199.293 161.623 199.456 161.32C200.551 159.262 202.6 158.045 204.787 157.428C207.096 156.779 209.536 156.588 211.907 156.281C214.433 155.95 216.958 155.622 219.485 155.291C221.314 155.053 223.916 154.362 225.442 155.794C226.755 157.026 226.868 159.179 226.154 160.744C225.247 162.73 223.283 164.035 221.399 164.981C217.988 166.691 214.117 167.43 210.316 167.147C208.418 167.007 206.539 166.569 204.76 165.899C203.812 165.541 202.864 165.13 202.01 164.582C201.145 164.026 200.39 163.207 200.436 162.114C200.445 161.908 200.482 161.713 200.56 161.522C200.647 161.309 200.673 161.093 200.787 160.889C200.902 160.682 200.709 160.412 200.473 160.524C200.002 160.749 199.713 161.056 199.578 161.566C199.454 162.039 199.442 162.544 199.564 163.016C199.872 164.21 200.829 165.075 201.88 165.649C203.739 166.665 205.818 167.31 207.897 167.684C212.014 168.423 216.347 168.068 220.237 166.493C222.307 165.656 224.378 164.504 225.853 162.798C227.255 161.178 227.896 158.97 227.113 156.916C226.774 156.03 226.147 155.246 225.314 154.78C224.391 154.263 223.338 154.16 222.301 154.215C221.038 154.282 219.781 154.495 218.528 154.658C217.153 154.837 215.776 155.014 214.401 155.193C211.716 155.542 208.999 155.794 206.337 156.29C203.993 156.726 201.471 157.568 199.816 159.381C199.665 159.546 199.523 159.721 199.39 159.897C200.22 157.823 200.964 155.7 201.627 153.57C202.41 151.057 203.023 148.434 203.068 145.792C203.085 144.806 203.018 143.842 202.869 142.896C203.087 142.958 203.305 143.015 203.53 143.048C204.131 143.137 204.735 143.204 205.336 143.277C206.49 143.417 207.645 143.557 208.801 143.693C211.158 143.97 213.529 144.181 215.893 144.383C220.575 144.785 225.257 145.177 229.938 145.586L237.941 146.288C237.969 146.29 237.994 146.288 238.019 146.288C237.002 148.567 236.029 150.864 235.107 153.182C231.726 161.674 229.062 170.418 227.012 179.322C226.861 179.983 227.356 180.472 227.871 180.564C221.966 212.304 225.576 245.57 237.197 275.653C249.696 308.005 271.613 336.339 300.45 355.73C328.536 374.618 362.192 385.11 396.009 385.845C431.263 386.609 465.782 376.256 494.921 356.418C524.841 336.05 548.59 306.44 561.284 272.488C573.601 239.541 574.666 203.124 565.938 169.165C557.029 134.501 537.881 103.105 510.452 80.0223H510.442ZM191.699 133.08C191.708 133.285 191.761 133.455 191.832 133.679C191.942 134.021 191.963 134.391 191.938 134.747C191.883 135.486 191.621 136.202 191.318 136.872C190.958 137.668 190.526 138.439 190.063 139.178C189.572 139.963 188.943 140.748 188.078 141.134C187.391 141.441 186.551 141.457 185.865 141.145C185.099 140.799 184.789 140.135 184.867 139.307C184.94 138.515 185.28 137.76 185.546 137.021C185.842 136.202 186.115 135.371 186.237 134.508C186.379 133.507 186.262 132.273 185.744 131.329C187.724 131.898 189.741 132.417 191.699 133.078V133.08ZM169.164 126.533C169.378 127.499 169.488 128.486 169.467 129.477C169.454 130.095 169.419 130.733 169.252 131.329C169.084 131.919 168.77 132.406 168.377 132.869C167.579 133.813 166.711 134.735 165.798 135.566C164.928 136.358 163.973 137.028 162.883 137.462C162.144 136.631 161.99 135.472 162.22 134.393C162.497 133.083 163.314 132.034 163.833 130.829C164.106 130.193 164.469 129.62 164.783 129.007C165.029 128.532 165.155 127.988 165.208 127.455C165.281 126.712 165.173 125.95 164.859 125.282C166.296 125.7 167.732 126.115 169.169 126.533H169.164ZM152.156 121.585C152.158 121.601 152.158 121.617 152.168 121.633C154.392 126.751 153.423 133.303 149.448 137.312C148.459 138.311 146.648 139.463 145.37 138.212C144.58 137.439 145.037 136.172 145.404 135.309C145.778 134.428 146.322 133.464 146.095 132.472C145.939 131.793 145.436 131.417 145.019 130.902C144.459 130.212 145.014 129.312 145.278 128.601C145.93 126.843 146.83 125.144 147.284 123.32C147.546 122.271 147.637 121.16 147.291 120.164C148.911 120.637 150.534 121.11 152.154 121.582L152.156 121.585ZM136.018 116.88C135.972 119.001 135.13 121.082 133.636 122.611C132.656 123.614 131.432 124.249 130.175 124.834C128.968 125.397 127.753 125.964 126.489 126.39C125.247 126.808 123.928 127.077 122.613 127.015C121.915 126.98 121.222 126.872 120.538 126.73C119.87 126.59 119.179 126.457 118.537 126.221C118.007 126.026 117.378 125.679 117.371 125.036C117.366 124.543 117.697 124.089 118.062 123.79C118.624 123.329 119.333 123.141 119.962 122.792C120.586 122.448 121.19 122.023 121.759 121.596C123.053 120.619 124.194 119.375 125.13 118.055C125.943 116.91 126.705 115.622 126.847 114.204C129.904 115.097 132.959 115.99 136.015 116.882L136.018 116.88ZM112.841 110.105C112.586 110.826 112.102 111.496 111.587 112.017C110.697 112.919 109.552 113.486 108.404 113.986C107.938 114.19 107.427 114.479 106.908 114.521C106.337 114.567 106.389 114.076 106.516 113.653C106.793 112.712 107.326 111.879 107.757 111.007C108.067 110.378 108.42 109.587 108.469 108.827C109.926 109.254 111.383 109.678 112.841 110.105ZM104.971 107.803C105.8 108.044 106.626 108.288 107.454 108.529C107.424 108.898 107.397 109.256 107.264 109.63C107.087 110.135 106.837 110.608 106.587 111.078C106.086 112.022 105.343 113.174 105.425 114.287C105.471 114.904 105.894 115.388 106.506 115.498C107.055 115.597 107.613 115.407 108.111 115.195C109.451 114.633 110.828 114.023 111.923 113.043C112.46 112.561 112.9 112.01 113.212 111.358C113.357 111.062 113.469 110.752 113.545 110.431C113.554 110.392 113.559 110.353 113.566 110.314C114.862 110.693 116.161 111.074 117.458 111.452C117.947 113.091 117.013 114.725 115.787 115.804C115 116.497 114.11 117.004 113.21 117.532C112.267 118.085 111.326 118.638 110.399 119.216C108.707 120.274 106.809 121.195 105.717 122.932C105.189 123.772 104.797 124.697 104.209 125.502C103.732 126.156 103.029 126.856 102.167 126.898C101.584 126.925 100.826 126.654 100.631 126.049C100.422 125.394 100.98 124.704 101.444 124.309C102.144 123.71 103.023 123.366 103.734 122.783C104.351 122.278 104.831 121.491 104.87 120.674C104.888 120.306 104.794 119.925 104.599 119.613C104.498 119.453 104.379 119.306 104.225 119.191C103.982 119.007 103.773 119.051 103.484 119.104C102.467 119.29 101.457 119.515 100.441 119.705C99.8577 119.815 98.8158 119.997 98.4211 119.398C98.2122 119.081 98.3178 118.677 98.4096 118.34C98.5312 117.892 98.6552 117.447 98.7952 117.004C99.0981 116.04 99.4837 115.026 100.152 114.248C100.884 113.394 101.965 112.946 102.766 112.166C103.954 111.005 104.668 109.43 104.962 107.803H104.971ZM82.7577 104.352C82.7003 104.466 82.6521 104.588 82.6085 104.712C82.5557 104.868 82.4456 105.15 82.4157 105.215C82.2413 105.575 82.0026 105.924 81.7387 106.224C81.7318 106.229 81.601 106.364 81.5873 106.38C81.5069 106.461 81.422 106.536 81.3371 106.612C81.1742 106.752 81.0043 106.888 80.8253 107.005C80.8115 107.009 80.6279 107.119 80.6348 107.115C80.5522 107.161 80.4673 107.204 80.3824 107.243C80.2194 107.321 79.9716 107.42 79.889 107.445C79.1293 107.672 78.3329 107.677 77.6399 107.491C77.4172 107.432 77.19 107.36 76.9674 107.28C78.7047 105.988 80.6693 105.006 82.7554 104.352H82.7577ZM71.5535 114.011C72.4853 111.902 73.8118 110.087 75.4091 108.584C75.9232 108.944 76.5199 109.21 77.0569 109.355C78.1287 109.639 79.2831 109.681 80.3525 109.362C81.4702 109.029 82.4318 108.411 83.2029 107.539C83.5954 107.096 83.9052 106.617 84.1645 106.084C84.4308 105.536 84.7658 104.811 84.4308 104.23C84.3665 104.118 84.2885 104.028 84.2036 103.957C86.1474 103.5 88.167 103.321 90.1774 103.429C90.0833 104.93 89.8378 106.387 89.3099 107.826C88.6788 109.545 87.63 111.207 86.3746 112.538C85.0366 113.956 83.2603 115.01 81.2705 115C79.4437 114.991 77.6995 114.406 75.9048 114.16C74.856 114.018 73.7613 113.993 72.7194 114.211C72.2191 114.317 71.7165 114.491 71.2666 114.736C71.2598 114.741 71.2529 114.746 71.2437 114.75C71.3401 114.502 71.4411 114.257 71.5489 114.014L71.5535 114.011ZM70.7112 116.322C70.7112 116.322 70.7319 116.309 70.7411 116.299C71.5306 115.762 72.32 115.368 73.2748 115.221C74.1996 115.078 75.1475 115.14 76.0678 115.283C77.9405 115.572 79.7696 116.178 81.6859 116.061C83.7193 115.937 85.5783 114.86 86.891 113.334C87.5359 112.584 88.1578 111.849 88.6811 111.005C89.1676 110.22 89.5463 109.389 89.8929 108.535C90.5332 106.952 90.96 105.217 91.0289 103.493C91.1964 103.509 91.364 103.521 91.5292 103.541C91.8849 103.585 92.2406 103.64 92.5964 103.702C92.6492 103.998 92.8488 104.262 93.2344 104.377C95.2586 104.969 97.2828 105.561 99.3069 106.153C99.3115 106.169 99.3138 106.185 99.3207 106.199C99.3597 106.295 99.4401 106.38 99.4906 106.47C99.6145 106.697 99.704 106.94 99.7591 107.195C99.8623 107.679 99.8509 108.175 99.7315 108.652C99.4561 109.756 98.763 110.663 97.9185 111.402C96.9477 112.253 95.8208 112.889 94.7422 113.589C93.6131 114.323 92.4977 115.069 91.3915 115.836C91.3387 115.873 91.3089 115.921 91.2905 115.971C90.2509 115.331 89.0414 114.966 87.8136 114.971C87.2421 114.971 86.6707 115.03 86.1222 115.191C85.7527 115.299 85.3671 115.397 85.0963 115.684C84.8048 115.992 84.713 116.432 84.8966 116.811C84.8393 116.804 84.7796 116.804 84.7222 116.811C83.4531 116.988 82.6338 118.452 82.2482 119.561C82.0715 120.068 81.9636 120.605 81.9246 121.144C81.4771 121.043 81.0181 120.972 80.5729 120.885C79.9142 120.756 79.2578 120.619 78.6015 120.481C77.4608 120.242 76.3133 119.942 75.1544 119.82C74.0367 119.703 72.841 119.682 71.7417 119.955C71.1955 120.091 70.6516 120.311 70.1673 120.596C70.0962 120.637 70.0228 120.681 69.9493 120.726C70.0411 119.237 70.289 117.759 70.7112 116.327V116.322ZM91.5843 118.962C91.5843 118.962 91.6003 118.987 91.6118 119.003C91.6325 119.035 91.6508 119.067 91.6692 119.099C91.7312 119.214 91.7931 119.326 91.8482 119.444C91.8964 119.547 91.9377 119.655 91.9813 119.76C91.9882 119.776 91.9928 119.788 91.9974 119.799C92.018 119.868 92.0364 119.937 92.0547 120.006C92.1098 120.233 92.142 120.463 92.1695 120.694C92.1695 120.708 92.1718 120.717 92.1741 120.729C92.1741 120.786 92.1764 120.841 92.1764 120.899C92.1764 121.022 92.1718 121.146 92.1603 121.27C92.1511 121.394 92.1374 121.516 92.119 121.64C92.1098 121.697 92.1006 121.755 92.0892 121.814C92.0869 121.823 92.0846 121.83 92.0823 121.842C92.018 122.083 91.9492 122.321 91.8597 122.556C91.8207 122.659 91.777 122.758 91.7334 122.858C91.7289 122.87 91.7059 122.918 91.6898 122.95C91.6715 122.982 91.6462 123.031 91.6416 123.042C91.5177 123.26 91.3869 123.474 91.2377 123.678C91.1735 123.767 91.1069 123.855 91.0358 123.939C91.0105 123.972 90.983 124.004 90.9554 124.036C90.9394 124.054 90.9164 124.077 90.905 124.089C90.7259 124.263 90.5492 124.435 90.3519 124.591C90.2715 124.655 90.1866 124.715 90.104 124.775C90.104 124.77 89.9204 124.89 89.886 124.91C89.6679 125.032 89.443 125.126 89.2135 125.222C89.1998 125.227 89.1653 125.241 89.1424 125.248C89.1172 125.254 89.0919 125.264 89.0644 125.271C88.9427 125.303 88.8234 125.33 88.6995 125.353C88.3896 125.411 88.3024 125.42 88.0339 125.415C87.4464 125.406 87.1113 125.342 86.572 125.142C86.2622 125.027 86.1979 125 85.9409 124.848C85.6953 124.704 85.4658 124.538 85.2432 124.362C85.234 124.355 85.1904 124.316 85.172 124.3C85.1445 124.275 85.117 124.249 85.0917 124.222C84.9907 124.123 84.8943 124.02 84.8025 123.912C84.7222 123.818 84.6442 123.721 84.573 123.623C84.5409 123.579 84.5088 123.533 84.4767 123.485C84.4652 123.464 84.4216 123.389 84.4055 123.359C84.114 122.84 84.0177 122.53 83.9442 121.954C83.8295 121.032 84.075 120.004 84.6167 119.2C84.6855 119.097 84.7612 119.001 84.8347 118.902C84.853 118.877 84.8668 118.858 84.8783 118.842C84.9219 118.794 84.9678 118.75 85.0114 118.702C85.2661 118.427 85.4199 118.138 85.5737 117.798C85.6471 117.637 85.6402 117.481 85.592 117.341C85.7366 117.373 85.8881 117.38 86.035 117.353C86.1979 117.323 86.3586 117.243 86.5146 117.185C86.5169 117.188 86.7303 117.126 86.7717 117.116C87.008 117.061 87.249 117.025 87.4923 117.006C87.5152 117.006 87.6782 116.999 87.7126 116.999C87.8595 116.999 88.0041 117.006 88.151 117.02C88.2795 117.031 88.4103 117.048 88.5388 117.066C88.587 117.073 88.6352 117.082 88.6834 117.091C88.6903 117.091 88.6903 117.091 88.6972 117.091C88.704 117.091 88.7063 117.093 88.7178 117.096C88.9726 117.158 89.2227 117.231 89.4683 117.323C89.5899 117.369 89.7116 117.419 89.8309 117.474C89.8584 117.486 89.886 117.5 89.9135 117.513C89.9365 117.525 89.9778 117.548 89.9892 117.555C90.2142 117.688 90.4368 117.819 90.6456 117.975C90.7351 118.041 90.82 118.11 90.905 118.181C90.921 118.2 91.0771 118.344 91.1 118.367C91.279 118.553 91.4397 118.755 91.5935 118.962H91.5843ZM70.328 126.053C70.0732 124.844 69.9332 123.611 69.908 122.379C70.2155 122.209 70.4909 121.977 70.8053 121.796C71.2552 121.539 71.7371 121.353 72.2305 121.197C73.2679 120.871 74.3328 120.823 75.4091 120.912C76.5268 121.004 77.61 121.188 78.7093 121.406C79.2968 121.521 79.8821 121.64 80.4673 121.764C80.9515 121.867 81.4427 121.993 81.9338 122.071C81.9659 122.436 82.0302 122.797 82.1381 123.145C82.3974 123.988 82.8518 124.743 83.4347 125.378C82.8633 125.739 82.2344 126.028 81.5896 126.186C80.5522 126.441 79.469 126.446 78.4064 126.457C75.9989 126.487 73.5892 126.542 71.1817 126.586C70.9201 126.59 70.6745 126.7 70.5231 126.893C70.4519 126.618 70.3854 126.338 70.3257 126.055L70.328 126.053ZM108.2 148.322C109.249 147.892 110.229 147.268 111.103 146.584C113.004 145.099 114.539 143.266 116.269 141.597C117.18 140.718 118.151 139.885 119.248 139.245C120.224 138.673 121.275 138.288 122.372 138.026C123.375 137.787 124.396 137.636 125.413 137.478C126.434 137.319 127.455 137.081 128.456 136.828C129.392 136.592 130.315 136.266 131.15 135.772C132.128 135.194 132.89 134.393 133.624 133.537C134.395 132.64 135.148 131.683 136.236 131.155C137.071 130.751 138.125 130.561 138.962 131.065C139.922 131.644 140.227 132.917 139.967 133.955C139.667 135.157 138.866 136.103 137.957 136.915C136.972 137.794 135.871 138.545 134.854 139.387C133.842 140.225 132.851 141.173 131.687 141.804C130.569 142.412 129.296 142.589 128.125 143.061C126.992 143.518 125.975 144.225 125.011 144.966C122.867 146.612 120.777 148.328 118.661 150.011C118.257 150.332 117.851 150.651 117.442 150.968C114.36 150.089 111.28 149.207 108.198 148.328L108.2 148.322ZM140.376 157.513C136.284 156.343 132.192 155.174 128.1 154.006C129.509 151.833 131.666 150.229 134.003 149.113C137.044 147.665 140.325 146.901 143.463 145.71C146.591 144.521 149.59 142.859 152.294 140.89C154.848 139.031 157.102 136.72 158.224 133.716C158.78 132.231 159.083 130.655 159.245 129.083C159.413 127.46 159.33 125.895 159.071 124.288C159.009 123.907 158.474 124.029 158.497 124.394C158.587 125.808 158.621 127.253 158.568 128.667C158.518 130.081 158.3 131.485 157.836 132.826C156.788 135.857 154.607 138.21 152.062 140.087C149.352 142.084 146.35 143.635 143.24 144.902C140.179 146.148 136.929 146.906 133.913 148.264C131.288 149.448 128.683 151.218 127.233 153.754C124.254 152.902 121.275 152.053 118.296 151.202C120.221 149.591 122.184 148.021 124.125 146.433C125.149 145.597 126.163 144.728 127.313 144.067C128.442 143.419 129.679 143.158 130.891 142.713C132.151 142.251 133.197 141.414 134.23 140.58C135.302 139.715 136.353 138.827 137.399 137.932C139.056 136.516 140.984 134.747 140.351 132.323C140.112 131.41 139.46 130.655 138.531 130.407C137.663 130.175 136.732 130.382 135.944 130.779C134.932 131.286 134.17 132.139 133.447 132.991C132.623 133.964 131.8 134.898 130.668 135.518C129.755 136.018 128.743 136.342 127.724 136.553C126.684 136.768 125.61 136.828 124.561 136.984C122.307 137.315 120.159 137.808 118.234 139.08C116.07 140.509 114.371 142.522 112.54 144.333C110.986 145.873 109.208 147.36 107.073 147.998C106.97 147.968 106.867 147.938 106.763 147.911C101.377 146.373 95.954 144.923 90.6043 143.259C90.1476 143.116 89.6909 142.97 89.2319 142.82C91.5039 143.305 93.815 143.569 96.1398 143.585C97.3539 143.592 98.5703 143.536 99.7797 143.415C101.042 143.289 102.313 143.075 103.468 142.529C105.852 141.397 107.383 139.155 109.299 137.432C111.05 135.857 113.065 134.588 115.234 133.677C116.469 133.158 117.743 132.78 119.044 132.472C120.35 132.162 121.672 132.038 123.007 131.942C123.177 131.931 123.157 131.658 122.991 131.648C120.733 131.527 118.408 131.942 116.269 132.649C114.078 133.372 111.998 134.446 110.151 135.83C109.175 136.56 108.283 137.381 107.431 138.253C106.509 139.201 105.609 140.19 104.56 141.005C102.486 142.618 99.8509 142.843 97.3103 142.928C94.5471 143.02 91.7748 142.772 89.0735 142.187C88.7752 142.123 88.5893 142.474 88.7247 142.655C84.5891 141.278 80.5201 139.559 77.0868 136.837C74.1882 134.538 72.0217 131.522 70.8696 128.054C70.9316 128.075 70.9981 128.091 71.067 128.087C73.6856 127.951 76.3042 127.832 78.9205 127.676C80.5797 127.577 82.9803 127.407 84.114 126.016C85.1147 126.824 86.3609 127.331 87.6667 127.412C89.9273 127.549 92.0433 126.292 93.2045 124.378C94.336 122.514 94.616 120.07 93.4616 118.145C93.0439 117.449 92.4908 116.846 91.8482 116.354C93.1242 115.618 94.3911 114.872 95.6372 114.087C96.8329 113.332 98.0837 112.584 99.0453 111.53C99.8646 110.635 100.413 109.582 100.457 108.354C100.475 107.831 100.429 107.308 100.259 106.807C100.209 106.658 100.142 106.514 100.069 106.374C101.524 106.798 102.979 107.225 104.434 107.65C104.2 108.841 103.729 109.977 102.947 110.92C101.923 112.152 100.317 112.614 99.2519 113.786C98.2535 114.886 97.8014 116.35 97.4228 117.757C97.2529 118.383 97.1634 119.095 97.4365 119.707C97.6982 120.297 98.249 120.639 98.864 120.763C99.5846 120.908 100.321 120.777 101.03 120.632C101.932 120.451 102.834 120.267 103.732 120.07C103.991 120.378 104.019 120.887 103.888 121.252C103.686 121.817 103.165 122.214 102.66 122.5C101.68 123.06 100.512 123.464 99.8899 124.476C99.3345 125.381 99.3551 126.54 100.165 127.288C100.939 128.002 102.086 128.174 103.062 127.816C105.643 126.863 105.88 123.572 107.895 122C108.999 121.14 110.238 120.435 111.404 119.664C112.572 118.888 113.703 118.062 114.851 117.256C115.994 116.455 117.1 115.551 117.704 114.261C118.087 113.444 118.248 112.501 118.039 111.627C119.776 112.134 121.516 112.643 123.253 113.151C122.991 113.499 122.727 113.846 122.445 114.181C121.835 114.911 121.19 115.613 120.517 116.283C119.184 117.614 117.756 118.865 116.262 120.01C113.15 122.395 109.88 124.564 106.708 126.868C103.578 129.142 100.482 131.616 96.9821 133.303C93.8793 134.797 90.5905 135.522 87.1549 135.628C85.2776 135.685 83.3911 135.479 81.5253 135.304C80.605 135.219 79.6847 135.109 78.7644 135.017C77.8166 134.923 76.8756 134.77 75.9209 134.825C75.5491 134.845 75.5422 135.424 75.8681 135.525C76.7035 135.784 77.5756 135.853 78.4408 135.958C79.2762 136.059 80.1116 136.137 80.9515 136.199C82.6613 136.326 84.394 136.374 86.1084 136.289C89.4339 136.121 92.7249 135.809 95.8553 134.586C99.502 133.163 102.653 130.618 105.832 128.389C109.104 126.094 112.377 123.793 115.567 121.385C117.297 120.079 119.028 118.741 120.579 117.224C121.773 116.058 122.966 114.769 123.882 113.339C124.724 113.584 125.566 113.832 126.409 114.078C125.766 115.313 125.188 116.579 124.394 117.734C123.482 119.06 122.39 120.224 121.041 121.112C119.767 121.95 118.071 122.152 117.022 123.329C116.127 124.334 116.047 125.801 117.174 126.673C117.756 127.125 118.5 127.318 119.207 127.478C119.953 127.648 120.701 127.813 121.458 127.917C122.902 128.114 124.339 128.006 125.741 127.609C127.115 127.219 128.417 126.631 129.7 126.01C131.07 125.346 132.495 124.697 133.64 123.671C135.495 122.009 136.564 119.508 136.491 117.02C136.924 117.146 137.36 117.272 137.796 117.401C137.863 117.497 137.929 117.596 137.987 117.697C138.028 117.773 138.053 117.851 138.111 117.917C138.157 117.968 138.223 118.002 138.267 118.055C138.375 118.19 138.409 118.395 138.469 118.553C138.528 118.718 138.609 118.877 138.675 119.04C138.804 119.349 138.96 119.643 139.063 119.962C139.169 120.293 139.256 120.63 139.327 120.97C139.35 121.082 139.522 121.05 139.502 120.938C139.437 120.568 139.355 120.203 139.249 119.843C139.153 119.512 139.084 119.189 138.946 118.872C138.875 118.709 138.808 118.544 138.71 118.397C138.62 118.264 138.487 118.126 138.43 117.977C138.402 117.904 138.407 117.816 138.377 117.743C138.345 117.66 138.285 117.603 138.237 117.532C138.237 117.532 138.235 117.527 138.232 117.525C140.98 118.328 143.731 119.127 146.478 119.93C147.029 121.101 146.754 122.512 146.361 123.703C145.794 125.422 145.03 127.093 144.277 128.736C143.924 129.507 143.571 130.262 144.142 131.031C144.551 131.582 145.26 131.958 145.418 132.67C145.648 133.695 144.952 134.765 144.599 135.683C144.408 136.176 144.216 136.633 144.225 137.172C144.236 137.769 144.459 138.341 144.899 138.754C146.113 139.894 147.887 139.488 149.099 138.586C150.313 137.682 151.3 136.378 152.051 135.077C152.776 133.819 153.315 132.456 153.648 131.045C154.378 127.937 154.093 124.626 152.707 121.748C155.293 122.5 157.878 123.258 160.462 124.008C161.658 124.355 162.853 124.704 164.049 125.05C164.687 125.931 164.714 127.079 164.494 128.126C164.361 128.752 164.239 129.408 163.925 129.973C163.594 130.57 163.168 131.109 162.823 131.701C161.745 133.56 160.776 136.335 162.495 138.148C162.621 138.281 162.775 138.297 162.94 138.242C164.207 137.815 165.323 137.06 166.319 136.181C167.331 135.288 168.295 134.283 169.139 133.23C169.991 132.167 170.22 130.939 170.241 129.603C170.255 128.651 170.163 127.701 169.975 126.769C171.127 127.104 172.279 127.439 173.433 127.772C173.429 127.793 173.422 127.809 173.422 127.832C173.555 133.395 169.034 137.625 164.932 140.704C162.261 142.71 159.388 144.448 156.379 145.898C154.857 146.632 153.301 147.291 151.718 147.874C150.132 148.457 148.512 148.927 146.951 149.581C145.248 150.295 143.669 151.227 142.262 152.427C141.551 153.033 140.892 153.696 140.282 154.406C139.671 155.115 139.226 155.874 138.847 156.728C138.753 156.944 139.056 157.045 139.185 156.896C140.305 155.61 141.425 154.289 142.735 153.194C144.03 152.113 145.485 151.25 147.02 150.559C148.551 149.868 150.15 149.297 151.729 148.725C153.315 148.149 154.876 147.502 156.402 146.779C159.463 145.327 162.383 143.573 165.109 141.563C167.386 139.883 169.573 138.04 171.313 135.791C173.05 133.542 174.25 130.841 174.09 127.963C174.884 128.192 175.678 128.424 176.472 128.653C176.476 128.676 176.476 128.697 176.488 128.72C178.92 133.916 178.025 140.236 174.822 144.89C172.917 147.658 170.278 149.887 167.319 151.459C165.821 152.255 164.246 152.87 162.628 153.373C161.01 153.873 159.374 154.321 157.8 154.945C156.205 155.576 154.692 156.416 153.46 157.623C152.617 158.447 151.803 159.505 151.42 160.666C147.738 159.615 144.059 158.564 140.378 157.513H140.376ZM159.195 162.888C160.912 160.159 163.916 158.277 167.124 157.938C167.96 157.85 168.822 157.972 169.646 157.802C170.567 157.614 171.251 156.99 171.879 156.329C173.208 154.931 174.294 153.414 175.106 151.663C175.818 150.132 176.545 148.395 178.182 147.649C178.893 147.325 179.715 147.284 180.415 147.663C181.156 148.06 181.635 148.831 181.833 149.632C182.251 151.323 181.656 153.334 180.805 154.8C179.903 156.354 178.831 157.821 177.644 159.168C175.262 161.869 172.343 164.035 169.183 165.743C165.853 164.79 162.523 163.838 159.193 162.886L159.195 162.888ZM175.673 167.611C175.109 167.446 174.546 167.281 173.982 167.118C172.674 166.743 171.368 166.369 170.059 165.995C172.772 164.455 175.315 162.573 177.413 160.274C178.659 158.908 179.802 157.384 180.61 155.711C181.018 154.867 181.36 153.981 181.73 153.118C182.069 152.324 182.374 151.484 182.386 150.61C182.407 149.024 181.523 147.19 179.848 146.821C178.328 146.483 176.809 147.438 175.921 148.608C175.329 149.389 174.925 150.293 174.516 151.176C174.078 152.122 173.598 153.029 172.976 153.869C172.355 154.706 171.652 155.509 170.883 156.216C170.516 156.556 170.11 156.861 169.617 156.983C169.174 157.093 168.712 157.072 168.258 157.065C164.292 157.01 160.485 159.044 158.442 162.468C158.405 162.53 158.385 162.594 158.38 162.656C156.276 162.055 154.171 161.451 152.067 160.85C152.214 160.496 152.379 160.155 152.588 159.826C152.992 159.193 153.487 158.628 154.047 158.128C155.192 157.104 156.553 156.365 157.972 155.801C159.603 155.149 161.309 154.711 162.982 154.176C164.581 153.664 166.137 153.052 167.62 152.255C173.224 149.244 177.612 144.016 178.494 137.597C178.9 134.632 178.505 131.586 177.236 128.874C177.27 128.883 177.305 128.894 177.339 128.904C179.754 129.603 182.168 130.299 184.585 130.994C185.05 131.43 185.379 131.972 185.56 132.621C185.824 133.569 185.654 134.561 185.379 135.486C185.108 136.399 184.704 137.267 184.412 138.173C184.165 138.949 184.02 139.789 184.316 140.571C184.933 142.208 186.981 142.538 188.438 141.902C190.265 141.108 191.27 139.002 192.018 137.28C192.369 136.47 192.668 135.591 192.686 134.698C192.695 134.299 192.654 133.744 192.45 133.335C192.762 133.448 193.071 133.565 193.379 133.686C193.902 133.893 194.416 134.125 194.917 134.384C194.887 134.437 194.873 134.501 194.896 134.581C195.587 136.927 194.508 139.463 192.895 141.17C191.997 142.12 190.919 142.745 189.836 143.452C188.867 144.083 187.653 145.03 187.703 146.325C187.726 146.908 187.882 147.459 188.146 147.975C188.3 148.276 188.525 148.489 188.704 148.771C188.897 149.074 189.076 149.393 189.248 149.708C189.881 150.878 189.959 152.218 189.819 153.52C189.507 156.453 187.623 158.929 185.466 160.825C184.041 162.078 182.471 163.156 180.91 164.23C179.315 165.327 177.647 166.333 175.928 167.221C175.753 167.31 175.678 167.457 175.671 167.604L175.673 167.611ZM199.126 137.939C200.434 139.853 200.948 142.26 201.056 144.549C201.173 147.036 200.695 149.513 200.012 151.895C199.337 154.249 198.499 156.574 197.611 158.86C197.354 159.025 197.06 159.142 196.769 159.255C196.172 159.482 195.571 159.698 194.972 159.918C193.804 160.35 192.619 160.758 191.488 161.281C190.377 161.795 189.289 162.397 188.286 163.101C187.249 163.831 186.34 164.786 185.48 165.713C185.009 166.22 184.552 166.739 184.105 167.267C183.637 167.82 183.249 168.435 182.815 169.016C182.659 169.227 182.983 169.527 183.169 169.328C183.595 168.869 184.054 168.446 184.481 167.987C184.927 167.508 185.351 167.005 185.801 166.525C186.682 165.589 187.619 164.733 188.605 163.909C189.611 163.069 190.604 162.319 191.809 161.786C192.975 161.272 194.189 160.871 195.389 160.446C195.961 160.244 196.636 160.072 197.246 159.806C195.516 164.072 192.929 168.749 188.032 169.663C185.9 170.06 183.692 169.743 181.603 169.25C179.96 168.859 178.333 168.391 176.708 167.916C178.2 167.251 179.6 166.427 180.97 165.532C182.423 164.582 183.841 163.56 185.186 162.461C186.496 161.389 187.733 160.198 188.709 158.807C189.526 157.644 190.037 156.347 190.315 154.956C190.563 153.719 190.561 152.388 190.12 151.19C189.893 150.578 189.578 149.969 189.239 149.412C189.058 149.116 188.819 148.822 188.697 148.496C188.582 148.193 188.456 147.895 188.346 147.592C187.811 146.121 188.711 144.969 189.881 144.165C190.978 143.413 192.144 142.836 193.108 141.9C195.02 140.037 196.245 137.388 195.543 134.731C196.948 135.541 198.205 136.585 199.133 137.944L199.126 137.939ZM285.431 84.8602C312.053 61.3387 345.606 46.7196 380.88 42.7699C382.076 42.6368 383.272 42.5174 384.47 42.4073C385.046 43.3528 385.725 44.2433 386.354 45.1475C386.698 45.6432 387.043 46.1366 387.387 46.6324C359.691 48.7116 332.481 57.513 309.072 72.5039C287.635 86.2326 269.497 104.827 255.932 126.322C255.867 126.273 255.801 126.225 255.736 126.175C255.282 125.828 254.83 125.482 254.375 125.135C253.921 124.791 253.46 124.454 253.003 124.112C252.806 123.965 252.608 123.818 252.411 123.671C261.538 109.274 272.66 96.1424 285.434 84.8579L285.431 84.8602ZM278.31 284.805C278.136 284.775 277.977 284.672 277.805 284.647C272.316 279.451 268.21 272.947 265.784 265.764C263.018 257.58 262.447 248.703 263.631 240.172C264.207 236.016 265.185 231.903 266.509 227.924C266.629 227.568 266.094 227.384 265.958 227.733C265.733 228.316 265.522 228.906 265.316 229.498C263.319 212.012 261.563 193.34 268.09 176.561C271.843 166.911 278.361 158.766 284.55 150.594C291.206 141.806 297.96 133.087 305.026 124.623C311.604 116.745 318.36 108.669 326.677 102.552C334.223 97.0007 343.036 93.7533 352.461 94.0815C361.141 94.3844 369.552 97.4597 376.536 102.584C384.592 108.496 390.602 116.958 394.139 126.257C397.522 135.151 398.442 144.716 399.151 154.132C399.867 163.634 400.496 173.119 402.903 182.377C404.574 188.798 406.791 195.08 408.581 201.469C407.496 205.428 406.321 209.362 405.056 213.265C401.873 223.102 397.79 232.686 396.789 243.073C396.023 251.053 396.599 259.025 397.639 266.943C393.996 272.167 389.728 276.947 384.915 281.106C378.016 287.066 369.917 291.816 361.079 294.205C356.657 295.401 352.103 295.966 347.523 295.876C342.524 295.778 337.567 295.055 332.585 294.729C327.855 294.419 323.182 294.704 318.475 295.202C313.612 295.716 308.733 296.347 303.83 296.129C295.144 295.743 286.909 292.257 280.215 286.774C279.602 286.272 279.008 285.748 278.423 285.216C278.599 285.108 278.496 284.84 278.308 284.807L278.31 284.805ZM276.352 284.794C276.157 284.817 275.96 284.837 275.765 284.86C274.904 284.966 274.048 285.083 273.19 285.211C271.432 285.475 269.683 285.79 267.941 286.152C264.531 286.864 261.13 287.837 257.852 289.016C256.269 289.586 254.692 290.157 253.129 290.779C238.368 262.81 231.416 230.696 233.764 199.128C234.359 191.142 235.545 183.192 237.314 175.38C237.429 174.868 237.145 174.466 236.773 174.28C241.223 158.103 248.062 142.595 256.923 128.348C258.073 129.206 259.271 130.005 260.455 130.818C261.997 131.878 263.535 132.943 265.091 133.98C268.203 136.057 271.303 138.15 274.402 140.245C275.281 140.84 276.169 141.423 277.048 142.019C277.466 142.304 277.876 142.6 278.292 142.889C278.746 143.208 279.242 143.474 279.68 143.814C279.855 143.95 280.063 143.642 279.873 143.527C279.48 143.293 279.136 142.995 278.758 142.74C278.338 142.458 277.915 142.18 277.495 141.9C276.738 141.395 276.001 140.86 275.251 140.346C273.709 139.286 272.169 138.226 270.631 137.161C267.553 135.033 264.487 132.89 261.389 130.792C259.989 129.844 258.601 128.862 257.162 127.972C266.062 113.74 276.979 100.774 289.556 89.6613C315.191 67.012 347.5 52.9344 381.47 49.1316C383.32 48.9251 385.172 48.7552 387.024 48.6107C387.038 49.29 387.079 49.9693 387.109 50.6463C387.153 51.6561 387.192 52.6682 387.233 53.678C387.313 55.6999 387.396 57.7218 387.476 59.7437C387.637 63.7347 387.894 67.728 387.956 71.7236C387.972 72.8367 387.99 73.9452 388.043 75.0559C388.071 75.6113 388.098 76.169 388.124 76.7244C388.14 77.0618 388.121 77.4244 388.165 77.7663C377.904 78.1909 367.698 79.8341 357.802 82.6753C339.649 87.8896 322.709 97.0306 308.524 109.522C293.778 122.505 281.968 138.887 274.445 157.043C273.532 159.248 272.694 161.476 271.937 163.742C271.744 164.318 272.072 164.758 272.511 164.926C270.273 168.476 268.288 172.185 266.766 176.1C265.128 180.318 264.003 184.725 263.276 189.189C261.798 198.245 261.983 207.487 262.693 216.605C263.041 221.096 263.576 225.56 264.088 230.033C264.145 230.535 264.636 230.641 264.99 230.462C259.877 246.031 261.116 264.061 270.477 277.785C272.196 280.305 274.172 282.652 276.352 284.791V284.794ZM481.636 121.213C478.406 118.519 473.683 118.225 469.667 118.349C464.951 118.496 460.18 119.021 455.514 119.705C446.21 121.068 436.888 123.939 430.111 130.781C423.827 137.124 420.492 145.669 418.358 154.188C416.042 163.432 414.954 172.926 413.111 182.267C411.971 188.046 410.633 193.783 409.116 199.475C408.875 198.649 408.629 197.825 408.379 197.001C406.864 192.014 405.221 187.061 403.92 182.012C402.692 177.248 401.877 172.412 401.347 167.521C400.305 157.917 400.17 148.214 398.547 138.673C396.879 128.871 393.335 119.515 387.254 111.579C381.56 104.15 373.89 98.3181 364.983 95.3346C356.905 92.6288 347.963 92.1514 339.761 94.6116C330.115 97.5056 322.163 104.058 315.299 111.211C307.675 119.157 300.751 127.809 293.941 136.447C290.43 140.902 286.96 145.391 283.476 149.866C280.58 153.586 277.674 157.306 274.987 161.18C278.124 153.226 281.904 145.572 286.512 138.345C291.715 130.184 297.843 122.618 304.748 115.836C318.117 102.706 334.292 92.716 352.009 86.625C369.22 80.7085 387.717 78.4893 405.832 80.2931C425.254 82.2255 444.321 88.4128 461.878 96.8125C479.391 105.192 496.381 117.121 506.474 134.088C507.686 136.124 508.785 138.224 509.786 140.372C508.34 139.52 506.812 138.818 505.194 138.334C503.381 137.79 501.501 137.528 499.61 137.56C497.632 137.592 495.665 137.861 493.687 137.916C491.816 137.966 489.787 137.868 488.16 136.84C486.349 135.697 485.62 133.737 485.305 131.708C484.711 127.882 484.89 123.928 481.638 121.213H481.636ZM294.23 295.532C297.007 296.372 299.874 296.918 302.77 297.116C307.64 297.446 312.515 296.895 317.353 296.37C322.294 295.835 327.196 295.447 332.169 295.761C337.266 296.083 342.334 296.838 347.447 296.934C356.765 297.113 365.855 294.543 373.979 290.04C383.455 284.787 391.538 277.243 397.843 268.423C397.983 269.442 398.13 270.461 398.281 271.478C399.016 276.38 399.911 281.25 400.854 286.116C401.841 291.208 402.887 296.294 404.31 301.286C407.032 310.817 411.234 320.125 418.335 327.214C421.394 330.269 424.949 332.791 428.892 334.563C428.607 334.859 428.701 335.497 429.241 335.554C435.194 336.204 441.136 333.416 444.656 328.69C444.569 330.423 444.95 332.179 445.739 333.728C445.542 333.673 445.319 333.677 445.083 333.778C435.417 337.907 425.224 340.844 414.835 342.456C404.475 344.062 393.925 344.436 383.481 343.537C372.703 342.609 362.073 340.303 351.888 336.654C341.207 332.828 331.061 327.572 321.747 321.098C312.439 314.629 303.973 306.94 296.622 298.311C295.83 297.382 295.025 296.461 294.233 295.53L294.23 295.532ZM446.403 325.759C446.676 325.149 445.7 324.823 445.42 325.422C442.701 331.267 436.268 334.921 429.881 334.464C429.853 334.407 429.81 334.354 429.736 334.324C420.726 330.416 414.046 322.549 409.775 313.883C405.258 304.719 403.202 294.593 401.262 284.635C400.184 279.091 399.029 273.555 398.155 267.978C398.309 267.758 398.46 267.538 398.614 267.315C398.609 267.285 398.602 267.26 398.598 267.23C398.554 266.87 398.508 266.512 398.465 266.151C398.444 266.039 398.421 265.929 398.405 265.816C398.247 266.05 398.093 266.287 397.932 266.521C397.462 263.333 397.092 260.134 396.89 256.907C396.599 252.216 396.659 247.463 397.253 242.795C397.891 237.788 399.201 232.906 400.762 228.112C402.355 223.221 404.172 218.406 405.763 213.516C406.718 210.578 407.617 207.624 408.471 204.655C408.381 203.927 408.404 203.186 408.721 202.541C408.886 202.204 409.132 201.919 409.43 201.715C409.458 201.533 409.515 201.359 409.6 201.198C409.573 201.102 409.547 201.003 409.52 200.907C409.722 200.168 409.926 199.429 410.121 198.688C412.659 189.049 414.548 179.297 416.166 169.468C417.623 160.609 419.159 151.59 422.76 143.305C424.511 139.279 426.808 135.447 429.794 132.211C432.139 129.67 434.875 127.556 437.874 125.883C437.801 130.342 433.732 133.523 430.987 136.596C428.598 139.272 426.377 143.699 427.956 147.296C429.826 151.551 434.994 150.633 438.554 149.593C443.449 148.161 448.367 146.793 453.361 145.747C463.395 143.644 473.977 142.818 484.025 145.285C493.193 147.537 501.912 152.978 507.454 160.687C510.208 164.517 512.173 168.956 512.884 173.633C513.66 178.726 512.871 183.899 511.461 188.81C509.972 194.006 507.847 199 505.862 204.019C503.587 209.763 501.386 215.537 499.146 221.296C498.04 224.137 496.936 226.985 495.752 229.796C494.582 232.576 493.06 235.263 490.366 236.808C488.075 238.123 485.514 238.834 483.391 240.457C481.438 241.948 479.891 243.929 478.755 246.098C473.755 255.645 476.85 266.553 477.505 276.688C478.14 286.549 477.007 296.507 474.386 306.029C471.772 315.528 467.599 324.477 462.185 332.697C461.27 334.088 460.313 335.451 459.321 336.789C455.984 338.054 452.083 338.345 449.056 336.156C445.868 333.852 444.803 329.303 446.389 325.764L446.403 325.759ZM472.85 313.557C476.201 304.393 478.065 294.71 478.333 284.954C478.471 279.988 478.122 275.061 477.534 270.133C476.885 264.678 476.125 259.108 477.052 253.637C477.925 248.489 480.408 243.162 484.998 240.344C487.332 238.91 490.104 238.288 492.257 236.546C494.313 234.882 495.569 232.47 496.583 230.076C497.772 227.27 498.779 224.385 499.895 221.548C501.037 218.645 502.187 215.746 503.339 212.848C505.547 207.303 507.737 201.747 509.82 196.154C511.578 191.435 513.185 186.611 513.763 181.585C514.305 176.88 513.791 172.141 512.099 167.71C508.801 159.076 501.467 152.223 493.31 148.161C484.502 143.775 474.544 142.692 464.82 143.316C459.737 143.642 454.674 144.56 449.71 145.68C447.188 146.249 444.688 146.899 442.203 147.612C439.912 148.271 437.62 149.152 435.256 149.503C433.066 149.827 430.558 149.563 429.213 147.571C428.034 145.825 428.366 143.507 429.055 141.643C430.634 137.363 434.602 134.932 437.005 131.208C438.099 129.512 438.836 127.582 438.758 125.539C438.758 125.498 438.749 125.459 438.737 125.422C439.465 125.043 440.204 124.688 440.959 124.357C445.326 122.448 449.999 121.355 454.695 120.632C459.372 119.914 464.143 119.427 468.871 119.216C472.94 119.035 477.874 119.166 481.144 121.947C484.525 124.823 483.696 129.268 484.644 133.136C485.523 136.718 488.273 138.625 491.857 138.88C495.695 139.155 499.507 138.157 503.326 138.974C511.303 140.681 517.128 147.617 521.686 153.908C524.543 157.85 527.262 161.926 529.803 166.08C532.44 170.393 534.822 174.9 536.449 179.699C539.304 188.115 539.681 197.648 535.279 205.607C530.613 214.041 522.397 219.65 515.932 226.567C509.579 233.365 504.996 241.565 501.552 250.162C494.405 267.994 492.069 287.327 484.927 305.169C483.552 308.602 481.996 311.989 480.213 315.248C480.091 315.345 479.969 315.441 479.848 315.542C479.579 315.765 479.517 316.081 479.586 316.371C476.867 321.153 473.633 325.631 469.72 329.526C466.996 332.236 463.989 334.731 460.471 336.319C465.743 329.429 469.869 321.711 472.848 313.562L472.85 313.557ZM497.285 267.386C499.89 257.928 502.961 248.457 507.737 239.844C510.084 235.612 512.864 231.605 516.122 228.02C519.512 224.291 523.347 221.004 526.966 217.509C528.401 216.123 529.812 214.698 531.143 213.201C531.407 220.655 530.944 228.128 529.769 235.495C528.536 243.22 526.498 250.793 523.792 258.13C521.084 265.472 517.683 272.55 513.628 279.242C509.57 285.943 504.882 292.291 499.598 298.079C494.446 303.723 488.741 308.889 482.599 313.44C489.934 299.114 493.035 282.818 497.285 267.388V267.386ZM531.279 238.717C532.738 230.923 533.422 222.982 533.262 215.056C533.241 214.071 533.209 213.084 533.163 212.1C533.147 211.764 533.023 211.452 532.796 211.244C533.994 209.745 535.093 208.173 536.036 206.495C538.223 202.601 539.426 198.277 539.639 193.82C540.092 184.282 536.415 175.214 531.651 167.141C529.066 162.762 526.202 158.532 523.299 154.357C520.898 150.906 518.323 147.534 515.283 144.617C513.912 143.302 512.43 142.079 510.839 141.03C511.457 140.945 512.026 140.333 511.684 139.598C503.165 121.259 487.139 107.946 469.651 98.5017C460.884 93.7671 451.684 89.8839 442.281 86.6044C432.826 83.3065 423.102 80.6993 413.201 79.164C405.235 77.9293 397.17 77.4565 389.136 77.7296C389.142 77.4749 389.11 77.2155 389.099 76.9493C389.078 76.4444 389.055 75.9372 389.035 75.4323C388.993 74.4294 388.934 73.4334 388.858 72.4328C388.704 70.3971 388.603 68.3614 388.507 66.3212C388.319 62.3256 388.124 58.33 387.919 54.3344C387.862 53.2213 387.805 52.1082 387.752 50.9952C387.713 50.185 387.697 49.368 387.635 48.5579C420.589 46.1137 453.744 53.6023 482.303 70.4407C512.742 88.3922 536.431 115.882 550.063 148.441C562.885 179.068 566.679 213.518 560.104 246.114C559.129 250.947 557.91 255.721 556.475 260.425C552.79 259.422 549.104 258.417 545.414 257.426C541.574 256.393 537.698 255.503 533.847 254.511C532.768 254.233 531.69 253.953 530.611 253.678C530.072 253.54 529.53 253.407 528.988 253.272C528.577 253.169 528.16 253.035 527.74 252.974C529.199 248.296 530.384 243.53 531.286 238.712L531.279 238.717ZM227.499 198.541C228.116 190.247 229.349 181.991 231.185 173.879C231.304 173.348 231.008 172.929 230.62 172.736C235.309 155.693 242.552 139.366 251.95 124.394C252.039 124.456 252.129 124.518 252.211 124.58C252.705 124.947 253.196 125.314 253.689 125.679C254.183 126.044 254.683 126.402 255.181 126.762C255.289 126.84 255.397 126.918 255.505 126.996C249.861 136.025 245.023 145.558 241.083 155.45C237.826 163.627 235.263 172.047 233.289 180.621C233.142 181.257 233.62 181.728 234.115 181.817C228.431 212.382 231.905 244.415 243.098 273.383C245.397 279.336 248.032 285.149 250.979 290.786C250.958 290.8 250.938 290.811 250.915 290.83C250.733 290.981 250.564 291.151 250.389 291.311C250.063 291.61 249.737 291.908 249.414 292.207C248.824 292.746 248.25 293.292 247.69 293.859C232.307 264.779 225.059 231.371 227.501 198.534L227.499 198.541ZM560.774 267.861C551.456 294.821 535.095 319.251 514.112 338.591C488.204 362.468 455.378 378.418 420.313 382.673C387.201 386.689 353.033 380.757 322.994 366.337C292.268 351.59 266.723 327.745 249.969 298.059C249.258 296.797 248.567 295.523 247.885 294.244C248.546 293.719 249.182 293.17 249.818 292.608L250.848 291.697C250.981 291.578 251.135 291.463 251.268 291.339C263.728 314.971 281.716 335.509 304.005 350.497C331.049 368.685 363.459 378.79 396.025 379.497C429.973 380.234 463.214 370.262 491.272 351.16C520.084 331.547 542.953 303.034 555.177 270.34C556.033 268.049 556.827 265.738 557.57 263.413C558.635 264.898 559.702 266.381 560.772 267.861H560.774ZM509.763 333.989C484.814 356.983 453.205 372.341 419.439 376.44C387.554 380.307 354.651 374.595 325.727 360.71C296.14 346.509 271.54 323.547 255.408 294.961C254.724 293.751 254.063 292.528 253.409 291.3C259.631 288.952 266.126 287.304 272.683 286.226C273.626 286.07 274.574 285.93 275.522 285.803C276.017 285.737 276.515 285.675 277.013 285.618C277.073 285.611 277.135 285.604 277.195 285.599C280.997 289.143 285.39 292.05 290.177 294.075C291.036 294.437 291.908 294.765 292.789 295.068C292.516 295.328 292.397 295.764 292.684 296.159C299.461 305.426 308.012 313.486 317.201 320.329C326.464 327.228 336.649 332.901 347.392 337.143C357.673 341.203 368.478 343.904 379.458 345.189C390.077 346.43 400.847 346.348 411.448 344.966C422.011 343.589 432.417 340.955 442.336 337.06C443.543 336.587 444.741 336.094 445.932 335.584C446.256 335.447 446.421 335.21 446.476 334.953C446.713 335.286 446.967 335.605 447.247 335.903C449.714 338.552 453.439 339.275 456.893 338.63C457.32 338.549 457.742 338.451 458.16 338.338C458.132 338.375 458.103 338.414 458.075 338.451C457.859 338.731 458.307 339.022 458.529 338.756C458.72 338.527 458.904 338.292 459.092 338.063C462.027 337.101 464.728 335.401 467.088 333.443C470.778 330.379 474.032 326.817 476.834 322.925C478.207 321.018 479.462 319.056 480.623 317.05C480.676 317.034 480.729 317.011 480.782 316.981C482.547 315.983 484.165 314.75 485.778 313.527C487.368 312.32 488.927 311.071 490.451 309.782C493.455 307.241 496.307 304.512 499.022 301.669C504.528 295.906 509.476 289.618 513.766 282.898C518.055 276.181 521.711 269.048 524.658 261.642C525.713 258.993 526.668 256.304 527.531 253.586C527.85 253.712 528.183 253.795 528.52 253.892C529.007 254.029 529.493 254.169 529.977 254.307C530.925 254.578 531.875 254.837 532.826 255.103C534.749 255.638 536.66 256.214 538.584 256.753C540.482 257.286 542.37 257.853 544.275 258.362C546.208 258.879 548.138 259.393 550.07 259.902C552.092 260.435 554.112 260.967 556.134 261.499C547.47 289.191 531.09 314.323 509.754 333.987L509.763 333.989ZM555.957 145.907C569.272 177.714 573.213 213.488 566.383 247.339C565.04 253.999 563.262 260.549 561.088 266.962C560.026 265.442 558.959 263.925 557.889 262.411C567.138 232.833 567.37 200.843 559.661 170.842C551.082 137.464 532.644 107.23 506.231 85.0025C478.101 61.3295 442.529 47.4586 405.767 46.2422C399.885 46.0471 393.992 46.1688 388.119 46.5842C387.733 45.9989 387.341 45.4183 386.953 44.8354C386.405 44.0115 385.881 43.1509 385.298 42.343C420.173 39.3503 455.362 47.0799 485.592 64.9075C517.203 83.5474 541.801 112.095 555.959 145.909L555.957 145.907Z" fill="#65171D"/>
<path d="M379.742 116.994C377.824 115.751 375.753 114.741 373.617 113.933C369.208 112.264 364.519 111.422 359.851 110.883C355.041 110.325 350.125 109.706 345.274 109.859C340.571 110.006 335.873 111.133 332.431 114.532C329.525 117.398 327.843 121.153 326.595 125.025C326.53 124.908 326.461 124.795 326.388 124.683C325.078 122.695 322.503 122.177 320.304 122.746C314.716 124.192 312.889 131.033 312.07 136.009C311.168 141.484 311.388 147.059 311.007 152.578C310.812 155.422 310.47 158.27 309.742 161.031C308.964 163.985 307.714 166.775 306.169 169.403C303.018 174.764 298.843 179.416 295.238 184.461C292.089 188.865 289.565 193.627 287.896 198.786C284.688 208.705 284.5 219.563 287.281 229.606C288.683 234.671 290.855 239.476 293.746 243.864C297.06 248.895 301.652 254.492 300.25 260.969C299.993 262.16 299.511 263.264 298.814 264.253C296.945 262.206 293.884 262.123 291.44 263.23C288.507 264.556 286.802 267.363 286.987 270.576C287.189 274.085 289.344 277.28 292.098 279.345C295.539 281.927 299.821 282.937 303.966 283.751C309.63 284.865 315.255 286.042 320.818 287.6C321.126 287.687 321.291 287.217 320.981 287.127C316.699 285.897 312.372 284.83 308.005 283.944C303.961 283.123 299.798 282.547 296 280.851C292.755 279.4 289.943 276.972 288.555 273.637C287.348 270.739 287.524 267.186 290.028 265.038C292.388 263.014 296.436 262.33 298.577 265.02C298.722 265.201 298.99 265.155 299.119 264.988C302.293 260.813 301.191 255.105 298.919 250.798C297.425 247.963 295.454 245.423 293.737 242.726C292.374 240.582 291.183 238.333 290.171 236.004C286.083 226.608 284.966 216.003 286.746 205.93C287.648 200.826 289.315 195.839 291.731 191.251C294.432 186.124 298.15 181.668 301.655 177.084C305.143 172.522 308.473 167.696 310.123 162.13C311.631 157.04 311.773 151.686 311.98 146.421C312.189 141.103 312.437 135.667 314.234 130.604C315.234 127.788 316.891 124.816 319.856 123.735C322.342 122.828 325.459 123.59 326.168 126.399C325.814 127.586 325.493 128.777 325.183 129.945C325.068 130.379 325.58 130.815 325.954 130.468C327.065 129.436 327.409 127.942 327.138 126.53C328.208 122.973 329.571 119.473 331.903 116.577C335.068 112.643 339.738 111.108 344.642 110.878C346.889 110.773 349.138 110.864 351.383 110.995C353.678 111.128 355.987 111.223 358.275 111.454C362.821 111.918 367.377 112.627 371.728 114.057C376.412 115.597 381.034 118.11 384.325 121.855C384.562 122.126 384.986 121.761 384.75 121.49C383.263 119.799 381.647 118.227 379.749 116.997L379.742 116.994Z" fill="#65171D"/>
<path d="M398.348 158.348C397.799 160.191 397.469 162.073 397.097 163.959C396.714 165.91 396.33 167.861 395.947 169.812C395.263 173.293 394.579 176.772 393.895 180.254C393.257 178.932 392.424 177.638 391.21 176.834C389.783 175.889 387.901 176.004 386.73 177.303C385.569 178.592 385.264 180.605 385.767 182.235C386.49 184.582 388.518 186.235 390.249 187.844C396.149 193.324 399.527 201.072 399.929 209.086C400.126 213.061 399.617 217.077 398.318 220.843C396.833 225.151 394.084 228.759 391.467 232.429C390.051 234.414 388.693 236.442 387.628 238.641C386.673 240.612 386.021 242.712 385.581 244.856C384.695 249.152 384.649 253.556 384.596 257.926C384.541 262.468 384.472 267.019 383.398 271.457C382.326 275.891 380.355 280.109 376.919 283.201C376.086 283.951 375.171 284.578 374.177 285.099C373.913 285.236 374.106 285.647 374.374 285.519C376.304 284.585 378.03 283.316 379.421 281.679C380.837 280.011 381.922 278.083 382.753 276.063C384.463 271.907 385.122 267.4 385.305 262.934C385.484 258.562 385.351 254.178 385.732 249.815C386.115 245.418 387.116 241.136 389.301 237.266C391.679 233.06 394.979 229.44 397.203 225.14C398.961 221.741 400.062 218.011 400.468 214.209C401.292 206.536 399.312 198.543 394.908 192.197C393.788 190.584 392.505 189.085 391.077 187.736C389.326 186.081 387.063 184.413 386.359 181.991C385.879 180.35 386.313 178.03 387.947 177.167C389.744 176.219 391.424 177.665 392.388 179.081C392.92 179.864 393.333 180.727 393.696 181.599C393.852 181.971 394.325 181.792 394.389 181.47L396.698 169.968C397.083 168.051 397.467 166.133 397.852 164.217C398.238 162.298 398.66 160.4 398.862 158.454C398.892 158.155 398.43 158.052 398.343 158.346L398.348 158.348Z" fill="#65171D"/>
<path d="M341.748 202.004C341.044 201.584 340.348 201.18 339.605 200.835C339.295 200.693 339.04 201.2 339.336 201.372C340.778 202.215 342.235 203.006 343.621 203.945C345.021 204.893 346.364 205.923 347.644 207.027C350.183 209.219 352.434 211.737 354.369 214.477C355.296 215.79 356.189 217.153 356.898 218.599C357.547 219.921 358.036 221.383 357.972 222.874C357.917 224.171 357.391 225.504 356.45 226.413C355.993 226.854 355.438 227.2 354.818 227.352C354.192 227.506 353.547 227.476 352.909 227.444C351.709 227.386 350.435 227.354 349.467 228.187C348.663 228.88 348.413 229.929 348.466 230.953C348.592 233.438 350.017 235.63 350.534 238.03C351.647 243.201 350.169 248.987 346.481 252.829C342.733 256.735 336.993 258.607 331.662 257.712C330.978 257.598 330.303 257.453 329.638 257.26C329.404 257.194 329.282 257.536 329.514 257.621C334.719 259.516 340.92 258.417 345.292 255.057C349.707 251.665 352.023 246.07 351.704 240.557C351.626 239.199 351.383 237.854 350.974 236.555C350.589 235.332 350.013 234.177 349.634 232.949C349.31 231.907 348.994 230.661 349.382 229.592C349.818 228.391 351.071 228.123 352.216 228.155C353.524 228.19 354.83 228.343 356.016 227.664C357.166 227.008 357.979 225.872 358.396 224.63C359.383 221.704 357.972 218.658 356.411 216.217C352.723 210.445 347.635 205.506 341.746 202.004H341.748Z" fill="#65171D"/>
<path d="M358.415 146.751C357.593 146.329 356.797 145.826 356.131 145.181C355.372 144.445 354.809 143.552 354.394 142.581C353.547 140.607 353.313 138.455 352.822 136.382C352.365 134.455 351.67 132.414 350.189 131.024C348.994 129.899 347.323 129.224 345.671 129.383C345.441 129.406 345.221 129.449 345.007 129.511C344.92 129.385 344.762 129.305 344.567 129.376C341.445 130.523 338.96 133.277 337.498 136.201C335.96 139.274 335.322 142.762 335.598 146.182C336.24 154.114 342.184 160.645 348.865 164.37C350.63 165.354 352.487 166.197 354.405 166.839C356.177 167.434 358.048 167.858 359.925 167.828C361.768 167.801 363.565 167.333 365.13 166.341C366.695 165.348 367.983 163.941 368.804 162.277C370.413 159.011 369.913 155.064 367.762 152.165C366.677 150.701 365.203 149.689 363.567 148.925C361.88 148.135 360.076 147.603 358.417 146.751H358.415ZM368.811 159.596C368.217 163.027 365.389 165.979 362 166.745C358.431 167.551 354.701 166.245 351.488 164.76C344.739 161.639 338.439 155.89 336.816 148.369C335.495 142.239 337.675 134.959 342.901 131.253C343.105 131.108 343.314 130.968 343.527 130.833C343.656 131.01 343.906 131.104 344.119 130.92C345.329 129.883 347.068 129.966 348.434 130.62C350.153 131.444 351.126 133.146 351.716 134.891C352.969 138.586 352.735 143.059 355.849 145.879C358.502 148.282 362.284 148.679 365.164 150.712C367.937 152.67 369.389 156.259 368.811 159.599V159.596Z" fill="#65171D"/>
<path d="M437.136 271.972C435.226 270.466 432.174 270.315 430.108 271.591C428.867 272.357 427.891 273.564 427.407 274.944C427.168 275.625 427.028 276.35 426.996 277.073C426.964 277.826 427.095 278.496 427.368 279.196C427.462 279.437 427.79 279.29 427.772 279.065C427.742 278.68 427.731 278.29 427.742 277.9C428.773 279.821 430.634 281.298 432.837 281.572C435.24 281.87 437.826 280.566 438.822 278.324C439.789 276.151 438.972 273.415 437.136 271.969V271.972ZM438.524 277.45C437.966 279.616 435.747 281.03 433.574 281.044C431.008 281.058 428.812 279.183 427.82 276.906C428.027 275.35 428.635 273.867 429.844 272.796C431.533 271.297 434.152 270.758 436.153 271.942C437.969 273.016 439.057 275.384 438.524 277.452V277.45Z" fill="#65171D"/>
<path d="M477.911 188.493C476.492 186.923 474.574 186.01 472.554 185.482C470.542 184.954 468.465 184.754 466.443 184.268C464.487 183.797 462.582 183.061 461.258 181.479C458.481 178.165 458.883 172.953 455.429 170.098C452.25 167.471 447.578 169.392 445.914 172.825C444.987 174.737 445.051 177.002 445.7 178.987C446.449 181.275 447.924 183.056 449.765 184.559C451.846 186.26 454.327 187.791 455.762 190.129C456.939 192.048 457.116 194.286 456.673 196.454C456.232 198.612 455.296 200.65 454.291 202.596C452.96 205.18 451.573 207.736 450.233 210.316C449.547 211.64 448.858 212.962 448.172 214.286C447.961 214.695 448.558 215.106 448.773 214.69C448.847 214.548 448.923 214.406 448.996 214.263C448.996 214.339 449.024 214.417 449.095 214.491C450.692 216.171 452.9 217.045 455.186 217.252C457.692 217.476 460.17 216.912 462.472 215.941C464.962 214.89 467.324 213.472 469.589 212.008C471.838 210.552 473.996 208.918 475.866 206.993C477.617 205.189 479.102 203.08 479.903 200.677C480.594 198.605 480.793 196.358 480.474 194.196C480.164 192.11 479.341 190.07 477.915 188.495L477.911 188.493ZM478.507 190.529C480.617 194.368 480.215 199.217 478.062 202.942C476.747 205.221 474.996 207.199 472.958 208.856C470.911 210.523 468.664 211.932 466.369 213.228C462.188 215.59 457.13 217.846 452.351 215.847C451.342 215.425 450.403 214.801 449.648 214.006C449.49 213.841 449.278 213.869 449.138 213.979C450.38 211.592 451.624 209.208 452.865 206.821C453.981 204.677 455.131 202.515 456.044 200.275C456.822 198.371 457.437 196.319 457.405 194.242C457.371 192 456.531 189.992 455.014 188.341C453.233 186.402 450.922 185.057 449.063 183.201C447.495 181.638 446.32 179.678 445.937 177.477C445.588 175.48 445.955 173.339 447.305 171.774C448.496 170.39 450.343 169.449 452.193 169.55C456.774 169.805 457.57 175.45 458.929 178.799C459.7 180.699 460.79 182.469 462.56 183.582C464.233 184.635 466.183 185.044 468.109 185.363C470.087 185.691 472.109 185.923 473.998 186.632C475.93 187.357 477.514 188.713 478.507 190.526V190.529Z" fill="#65171D"/>
<path d="M139.603 121.802C139.628 122.319 139.747 122.791 139.658 123.315C139.568 123.845 139.369 124.373 139.121 124.848C138.538 125.954 137.565 126.766 136.516 127.414C135.426 128.086 134.237 128.607 133.062 129.112C131.942 129.594 130.799 130.032 129.626 130.37C128.314 130.746 126.964 130.994 125.596 131.035C125.323 131.044 125.286 131.467 125.564 131.462C128.157 131.407 130.652 130.647 133.032 129.663C135.419 128.676 138.216 127.579 139.463 125.144C139.727 124.627 139.901 124.081 139.949 123.503C139.993 122.964 140 122.257 139.706 121.784C139.681 121.745 139.6 121.743 139.605 121.802H139.603Z" fill="#65171D"/>
</svg>
