<svg xmlns="http://www.w3.org/2000/svg" version="1.1" viewBox="-5.0 -10.0 110.0 135.0">
 <path d="m15.078 89.551c-0.36719 0.37891-0.75781 0.44922-0.81641 0.44922l-4.2383-4.2305c-0.03125-0.10156 0.039062-0.48828 0.44141-0.87109l28.52-27.801c1.4414 1.4102 3.25 2.3086 5.1914 2.6016zm69.582-7.2891c0.51172 0.48047 0.64062 0.94922 0.64062 1.1094l-4.1914 4.1914c-0.17188 0-0.62891-0.14062-1.1211-0.64844l-27.449-28.062c-1.2891-1.3203-3.1992-1.8203-5.1211-1.3203-0.26953 0.070312-0.57812 0.12891-0.98828 0.19141-2.2617 0.25-4.4805-0.53125-6.0898-2.1484l-1.3398-1.3555-14.551-14.527c-3.5586-3.6406-6.1992-7.8711-7.8516-12.578-1.9219-5.4805-2.0781-10.469-1.7891-14.012l32.762 32.75 0.73828 0.73828 5.1211 5.0898 0.62891 0.62109 0.10938 0.10156zm5.0898-57.172-12.68 14.102c-2.2617 2.5117-5.3203 3.9883-8.3984 4.0391-1.8594 0.03125-3.7109-0.37109-5.3516-1.1602-0.78125-0.39062-1.7109-0.23828-2.3281 0.37891l-6.8594 7.0391-3.6289-3.6211 7.0469-6.8672c0.60938-0.60938 0.76172-1.5391 0.37891-2.3086-0.80078-1.6484-1.1992-3.5-1.1602-5.3594 0.058594-3.0898 1.5312-6.1484 4.0391-8.4102l14.09-12.68c0.37891-0.32813 0.94141-0.32031 1.2891 0.019531 0.17969 0.17969 0.26953 0.41016 0.26953 0.66016s-0.10156 0.48047-0.26953 0.66016l-14.117 14.117c-0.60937 0.60938-0.94141 1.4219-0.94141 2.2812 0 0.87109 0.32812 1.6797 0.94141 2.2812l0.55859 0.55859c1.2617 1.1719 3.2695 1.1289 4.5703-0.10156l14.449-13.719c0.37109-0.35156 0.94922-0.33984 1.3008 0.011719 0.35938 0.37109 0.37109 0.94141 0.03125 1.3086l-12.691 13.379-1.0703 1.1211c-1.1211 1.1992-1.2695 2.9609-0.33984 4.1992 0.12109 0.14844 0.23047 0.30078 0.37109 0.42969l0.46094 0.46094c0.62109 0.62109 1.4688 0.94922 2.3086 0.94922 0.87109 0 1.6797-0.33984 2.2812-0.94922l14.109-14.109c0.35156-0.35156 0.96875-0.35156 1.3203-0.011719 0.33984 0.35938 0.34766 0.92969 0.019531 1.3008z"/>
</svg>