<svg xmlns="http://www.w3.org/2000/svg" version="1.1" viewBox="-5.0 -10.0 110.0 135.0">
 <path d="m49.539 11.988c-0.078124-1.3281-1.1914-2.3789-2.5195-2.3789-1.3906 0-2.5195 1.1289-2.5195 2.5195v15.5c0 0.39062-0.32031 0.71875-0.71875 0.71875h-0.55078c-0.37891-0.011718-0.71094-0.39062-0.73047-0.80859l-0.39844-15.469c-0.03125-1.3516-1.1602-2.4609-2.5195-2.4609s-2.4883 1.1016-2.5195 2.4492l-0.39844 15.488c-0.011718 0.39062-0.26172 0.73047-0.58984 0.78125-0.058594 0.011719-0.12109 0.019531-0.17969 0.019531h-0.5c-0.39844 0-0.73047-0.32812-0.73047-0.73047l-0.003906-15.488c0-1.3906-1.1289-2.5195-2.5195-2.5195-1.3281 0-2.4414 1.0391-2.5195 2.3906l-0.76953 14.711c-0.17187 3.1094 0.87891 6.0898 2.8906 8.1719 1.1602 1.2109 2.5898 2.1406 4.1406 2.6992l-0.64844 50.871c-0.019531 0.78125 0.23828 1.5 0.71094 1.9805 0.36328 0.36719 0.81641 0.56641 1.293 0.56641h4.6914c0.46875 0 0.92969-0.19922 1.2891-0.55859 0.46875-0.48047 0.73047-1.1992 0.71094-1.9688l-0.64844-50.879c1.5508-0.55859 2.9805-1.5 4.1406-2.6992 2.0117-2.0781 3.0586-5.0586 2.8906-8.1719zm-3.5703 21.512c-0.98047 1.0195-2.1914 1.8008-3.5117 2.25-0.71875 0.25-1.1992 0.92188-1.1914 1.6719l0.64844 51.078c0.011719 0.23828-0.058593 0.42188-0.10937 0.5h-4.4609c-0.050781-0.078125-0.12109-0.25-0.10938-0.51172l0.64844-51.059c0.011719-0.75-0.46875-1.4219-1.1914-1.6719-1.3086-0.44922-2.5312-1.2305-3.5117-2.2617-1.6211-1.6797-2.4688-4.1211-2.3281-6.6797l0.76953-14.699c0.019531-0.28906 0.23828-0.5 0.51953-0.5 0.28906 0 0.51953 0.23047 0.51953 0.51953v15.488c0 1.5 1.2188 2.7305 2.7305 2.7305h0.5c0.17969 0 0.33984-0.011719 0.48828-0.039063 1.2695-0.17969 2.2305-1.3086 2.2812-2.6914l0.39844-15.5c0.011718-0.28125 0.23828-0.5 0.51953-0.5s0.51172 0.23047 0.51953 0.51172l0.39844 15.48c0.050781 1.5 1.2188 2.7109 2.6602 2.75h0.60938c1.5 0 2.7188-1.2188 2.7188-2.7188v-15.5c0-0.28906 0.23047-0.51953 0.51953-0.51953 0.28125 0 0.5 0.21875 0.51953 0.48828l0.76953 14.719c0.15625 2.543-0.69141 4.9844-2.3242 6.6641z"/>
 <path d="m68.398 19.141c-2.3086-4.8086-5.5586-8.0117-7.8789-9.8398-0.41016-0.32812-0.96094-0.39062-1.4297-0.16016-0.48047 0.23047-0.76953 0.69922-0.76953 1.2305v41.609l-0.37891 35.238c-0.019531 0.89844 0.26953 1.7383 0.76953 2.25 0.33984 0.35156 0.76953 0.53906 1.2188 0.53906h4.6914c0.44922 0 0.87891-0.19141 1.2188-0.53906 0.5-0.51172 0.78906-1.3594 0.76953-2.25l-0.32812-30.352c-0.011719-0.78125 0.42969-1.5 1.1797-1.9492 2.2812-1.3516 3.6914-3.8398 3.6914-6.4883l-0.003906-17.359c-0.027344-4.1094-0.97656-8.2422-2.75-11.93zm0.76172 29.301c0 1.9492-1.0391 3.7812-2.7109 4.7695-1.3711 0.80859-2.1797 2.1914-2.1602 3.6914l0.32813 30.359c0.011718 0.37109-0.089844 0.64062-0.16016 0.75h-4.3711c-0.070313-0.12109-0.17188-0.37891-0.16016-0.76172l0.37891-35.262 0.003906-40.258c2.0195 1.7812 4.4688 4.4883 6.2812 8.2695 1.6484 3.4297 2.5312 7.2617 2.5586 11.07v17.371z"/>
</svg>