<svg width="708" height="698" viewBox="0 0 708 698" fill="none" xmlns="http://www.w3.org/2000/svg">
<path d="M645.367 204.633C646.387 204.438 645.938 204.342 646.734 204.801C646.444 205.758 646.077 206.179 645.268 206.757C642.134 208.995 638.815 209.194 635.113 208.683C633.992 208.028 633.09 207.752 632.463 206.595C633.812 205.624 642.827 205.162 645.367 204.633Z" fill="#65171D"/>
<path d="M594.329 144.299C594.377 144.38 594.442 144.453 594.472 144.542C594.993 146.122 594.128 148.866 593.234 150.214C588.777 156.928 579.219 159.428 571.742 160.726L571.499 160.465C571.534 159.659 578.38 157.25 579.733 156.564C585.675 153.547 590.181 149.394 594.329 144.299Z" fill="#65171D"/>
<path d="M425.568 510.085C426.69 510.32 427.26 510.551 428.012 511.438C430.265 514.1 430.896 518.837 430.67 522.175C430.544 524.02 429.954 524.785 428.558 525.961C427.552 525.687 426.512 525.426 425.692 524.757C423.929 523.32 423.062 520.803 422.924 518.616C422.723 515.423 423.419 512.493 425.568 510.085Z" fill="#65171D"/>
<path d="M385.712 265.278C390.501 264.934 395.08 264.538 399.661 266.335C403.699 267.919 409.099 271.135 410.814 275.257L409.996 275.382C401.718 271.642 393.252 269.479 384.64 266.741L384.558 266.33L385.712 265.278Z" fill="#65171D"/>
<path d="M443.751 373.63C443.97 373.609 444.189 373.58 444.408 373.567C445.396 373.51 446.233 373.587 446.962 374.292C447.941 375.242 448.153 376.296 448.115 377.604C447.987 382.125 445.065 386.741 441.739 389.668C441.497 389.678 441.253 389.695 441.011 389.699C439.893 389.723 438.787 389.33 438.063 388.451C437.184 387.386 437.145 385.844 437.314 384.547C437.872 380.284 440.372 376.238 443.751 373.63Z" fill="#65171D"/>
<path d="M382.387 251.669C382.811 251.621 383.237 251.582 383.664 251.567C394.498 251.196 407.814 256.193 415.753 263.48C416.416 264.089 416.428 263.917 416.469 264.857L414.891 264.519C406.521 261.563 398.518 257.747 390 255.152C386.163 253.983 382.139 253.636 378.244 252.65C379.519 251.972 380.966 251.887 382.387 251.669Z" fill="#65171D"/>
<path d="M428.678 414.442C429.791 414.805 430.568 415.13 431.31 416.048C432.463 417.477 432.567 419.833 432.35 421.555C431.888 425.216 429.967 429.535 427.02 431.877C425.861 431.607 424.518 431.397 423.715 430.446C422.281 428.748 422.16 426.028 422.547 423.955C423.317 419.825 425.169 416.772 428.678 414.442Z" fill="#65171D"/>
<path d="M557.524 105.166L558.682 105.25L558.95 105.577C552.14 109.264 546.661 114.273 543.94 121.613C540.148 131.845 543.886 140.642 548.124 149.942C545.001 147.246 542.731 144.029 541.231 140.223C538.529 133.372 538.561 125.16 541.755 118.486C544.973 111.761 550.487 107.561 557.524 105.166Z" fill="#65171D"/>
<path d="M295.161 563.008C296.668 563.281 298.176 563.563 299.668 563.91C312.151 566.814 332.242 576.096 338.946 587.304C339.847 588.811 339.845 589.281 339.37 590.973C336.387 589.102 334.155 585.793 331.56 583.388C325.229 577.522 317.292 572.669 309.24 569.42C306.284 568.226 296.372 566.702 294.846 564.559L295.161 563.008Z" fill="#65171D"/>
<path d="M113.753 558.829C114.11 558.838 114.584 559.003 114.936 559.088L115.478 560.128C115.308 560.393 115.222 560.736 114.967 560.923C113.557 561.956 101.581 562.048 99.1509 562.268C83.2815 563.699 64.7762 569.644 53.4613 581.137C52.7638 581.342 52.5523 581.041 51.9199 580.737C52.068 579.477 52.6639 578.686 53.4845 577.75C65.1348 564.461 97.0574 559.819 113.753 558.829Z" fill="#65171D"/>
<path d="M319.282 541.219C322.279 540.984 325.828 540.868 328.734 541.671C330.753 542.229 332.306 543.018 333.331 544.874C333.337 545.612 333.486 546.006 333.037 546.643C331.162 549.299 326.732 549.357 323.788 549.728C322.264 549.844 320.752 549.883 319.224 549.874C316.627 549.859 312.153 549.586 310.447 547.286C309.675 546.244 309.756 545.935 309.913 544.736C312.176 541.881 315.886 541.727 319.282 541.219Z" fill="#65171D"/>
<path d="M318.953 543.856C320.552 543.748 322.335 543.512 323.926 543.721C325.397 543.915 326.36 544.222 327.2 545.397C326.084 546.132 325.557 545.996 324.237 546.02C321.418 545.961 318.6 545.945 315.823 545.415L315.52 544.892C316.638 544.343 317.745 544.136 318.953 543.856Z" fill="#FFEEDF"/>
<path d="M77.1918 439.323C72.6364 435.972 68.1755 432.281 63.0876 429.726C60.4714 428.413 54.5789 427.507 53.0732 425.225C53.9893 424.693 53.5478 424.797 54.644 424.792C62.7754 424.749 72.9807 432.529 78.5779 437.777C84.2225 442.27 107.421 466.176 107.84 472.291C107.85 472.429 107.827 472.568 107.82 472.706C105.566 472.279 103.142 468.191 101.757 466.403C93.8453 456.193 86.2651 448.396 77.1918 439.323Z" fill="#65171D"/>
<path d="M72.0806 523.996C73.8298 523.789 75.5362 523.752 77.2889 523.986C81.9139 524.602 89.4236 527.985 92.0202 531.959C92.7623 533.096 92.7578 533.554 92.459 534.84C91.4983 535.937 90.9667 536.295 89.5939 536.814C86.8511 536.73 84.0814 536.355 81.393 535.817C77.4789 535.033 70.0085 532.984 68.1933 529.24C67.9185 528.671 67.7946 528.023 68.0247 527.429C68.7151 525.641 70.4313 524.773 72.0806 523.996Z" fill="#65171D"/>
<path d="M77.7977 527.473C81.3951 528.149 84.6963 529.13 87.3786 531.71L87.0592 532.181L85.8639 532.36C83.3476 531.772 79.6726 531.357 77.4382 530.099C76.6078 529.631 76.5168 529.639 76.2929 528.693L77.7977 527.473Z" fill="#FFEEDF"/>
<path d="M359.774 393.377C360.77 393.442 360.907 393.447 361.706 394.022C361.017 395.894 342.885 404.677 339.141 406.893C314.923 421.226 295.036 443.565 288.091 470.903L286.888 470.821L286.329 470.148C286.125 467.637 287.246 464.781 288.1 462.439C300.067 429.602 328.855 407.824 359.774 393.377Z" fill="#65171D"/>
<path d="M335.098 469.623C337.534 469.709 339.884 470.127 342.043 471.315C343.096 471.895 343.281 472.46 343.631 473.542C343.391 474.895 342.883 475.82 341.97 476.842C338.035 481.252 331.787 482.822 326.091 483.312C324.068 483.414 322.199 483.096 320.34 482.261C319.609 481.933 318.917 481.299 318.734 480.507C318.38 478.976 319.19 477.432 320.122 476.249C323.581 471.855 329.713 470.145 335.098 469.623Z" fill="#65171D"/>
<path d="M334.57 473.47C335.484 473.418 336.023 473.509 336.881 473.82L336.959 474.511C334.281 476.728 330.556 477.38 327.222 478.077C326.972 478.051 326.72 478.035 326.47 477.997C325.487 477.848 325.079 477.947 324.503 477.135C325.997 475.025 331.987 474.125 334.57 473.47Z" fill="#FFEEDF"/>
<path d="M98.0966 364.008C104.376 364.701 110.106 369.611 114.312 373.943C132.907 393.089 142.801 420.945 148.458 446.393C149.617 451.603 151.46 457.844 151.334 463.17C150.399 462.986 149.701 463.097 149.103 462.239C148.518 461.398 148.286 457.364 148.078 456.168C146.321 446.076 143.765 436.116 140.7 426.336C134.764 407.392 124.848 386.311 109.791 372.855C106.242 369.683 101.163 368.244 98.3464 365.656C97.8157 365.169 98.0654 364.671 98.0966 364.008Z" fill="#65171D"/>
<path d="M154.314 549.571C164.262 549.068 174.633 551.597 184.394 553.336C193.231 554.91 202.064 556.437 210.952 557.715C234.506 561.103 258.242 562.058 282.019 561.708C281.275 564.338 280.746 567.43 278.891 569.538C275.568 573.312 265.514 572.329 260.459 572.644C250.878 573.036 241.314 573.886 231.722 574.226C211.157 574.957 154.003 576.17 137.056 566.367C135.309 565.356 133.906 564.085 133.439 562.077C133.079 560.527 133.387 558.948 134.339 557.658C137.899 552.83 148.574 550.248 154.314 549.571Z" fill="#65171D"/>
<path d="M273.548 283.085L273.89 283.461C273.152 287.057 260.877 298.249 257.833 303.493C252.397 312.859 248.33 340.038 248.409 351.152C248.454 357.462 249.545 363.97 250.977 370.107C252.538 376.797 256.318 382.388 257.975 388.875C259.31 394.096 258.342 398.826 255.484 403.356C250.555 411.169 240.718 419.073 231.445 420.992C224.377 422.455 218.22 419.422 212.468 415.786C211.671 415.171 210.875 414.555 210.094 413.92C202.723 407.929 196.133 398.429 195.292 388.853C192.4 355.933 232.709 326.083 254.004 305.417C261.012 298.616 267.152 290.474 273.548 283.085Z" fill="#65171D"/>
<path d="M216.432 387.825C217.843 388.144 218.606 389.234 219.763 389.996C222.739 391.954 223.73 388.813 226.331 388.333C226.929 389.365 226.782 389.995 226.77 391.169C226.372 391.574 225.983 391.987 225.518 392.32C223.927 393.462 221.513 393.793 219.609 393.47C218.298 393.247 217.072 392.574 216.432 391.379C215.74 390.089 216.067 389.12 216.432 387.825Z" fill="#FFEEDF"/>
<path d="M237.91 350.078C238.628 350.281 239.163 350.454 239.825 350.808C240.601 355.091 238.481 360.877 238.16 365.32C237.933 368.456 238.667 372.236 239.221 375.329C239.691 377.956 241.071 381.338 239.717 383.692C239.581 383.662 239.443 383.64 239.309 383.603C238.14 383.284 237.619 382.785 237.067 381.746C233.202 374.468 235.394 357.721 237.91 350.078Z" fill="#FFEEDF"/>
<path d="M242.05 355.476C242.906 355.97 243.099 356.066 243.468 356.986C245.04 360.907 245.277 368.734 246.071 373.184C247.223 379.646 249.075 386.161 249.867 392.656C250.037 394.049 249.994 394.963 249.531 396.29L247.867 396.436L247.127 395.776C244.414 387.968 239.855 362.77 242.05 355.476Z" fill="#FFEEDF"/>
<path d="M205.456 373.38C205.858 373.452 207.287 373.77 207.472 374.121C209.423 377.81 204.764 390.942 213.136 401.184C217.91 407.026 222.716 405.963 229.32 406.74C230.145 407.678 229.911 407.91 229.839 409.167C227.031 410.042 224.282 410.392 221.362 409.875C216.474 409.011 212.672 405.99 209.906 402.037C204.155 393.815 203.573 382.888 205.456 373.38Z" fill="#FFEEDF"/>
<path d="M294.236 492.088C295.691 492.056 297.248 491.95 298.69 492.159C300.072 492.361 301.283 492.885 302.049 494.087C302.853 495.35 302.192 497.654 301.856 499.019C300.205 505.737 297.518 512.457 295.338 519.052C291.144 531.752 287.075 544.389 283.56 557.296C263.978 557.596 244.182 556.797 224.714 554.626C216.571 553.717 208.38 552.63 200.322 551.141C182.485 547.844 163.337 542.069 145.283 546.301C141.659 547.149 136.108 551.881 132.902 551.374L132.147 549.756C125.604 534.184 119.922 517.878 112.686 502.637C110.229 501.208 108.386 500.438 107.434 497.596C107.543 496.854 107.464 496.393 108 495.81C109.24 494.46 111.346 494.074 113.115 493.929C118.949 493.451 125.109 493.746 130.977 493.71L166.059 493.428L294.236 492.088Z" fill="#65171D"/>
<path d="M579.999 76.8519C581.36 76.7508 582.778 76.7816 584.144 76.7956C596.893 76.9239 609.585 82.2307 618.435 91.3169C627.942 101.078 630.877 112.883 630.676 126.052C635.943 126.466 641.288 127.914 646.028 130.214C653.968 134.066 660.323 140.513 663.165 148.856C665.937 156.986 665.202 166.439 661.241 174.074C657.31 181.653 650.372 186.96 642.181 189.476C633.095 192.267 624.771 191.284 616.409 186.968C627.084 188.753 637.729 188.871 647.495 183.576C653.675 180.226 657.912 175.004 659.842 168.325C662.02 160.785 661.069 152.569 657.128 145.756C650.86 134.924 639.148 131.07 627.67 127.904C626.687 131.178 625.42 133.802 623.608 136.684C625.011 124.963 627.655 116.866 622.52 105.42C618.034 95.4198 609.342 88.2352 599.054 84.3889C587.824 80.1894 575.335 81.0813 564.281 85.4557C560.305 87.0286 556.614 89.1728 552.718 90.918C546.202 87.0585 541.2 84.1551 533.519 83.1103C524.045 81.8212 514.459 84.4284 506.857 90.1227C500.727 94.7159 496.579 101.394 495.563 108.947C493.576 123.723 501.569 128.323 509.123 138.622C512.637 143.412 513.047 147.98 512.249 153.652C514.777 153.937 517.226 154.435 519.699 155.018C556.211 163.614 591.828 182.44 617.068 210.053C621.091 214.455 625.482 219.076 628.621 224.138C629.63 224.169 630.636 224.181 631.646 224.177C642.015 224.143 653.429 221.862 660.88 214.19C666.718 208.18 669.97 197.717 667.938 189.556C667.088 186.145 665.058 182.481 664.942 178.995L665.48 178.744C666.584 179.405 667.411 180.366 668.276 181.303C672.089 185.437 673.363 191.924 673.054 197.402C672.583 205.732 668.728 213.89 662.334 219.395C651.885 228.392 639.077 229.053 625.903 228.164C620.295 233.817 615.17 239.931 609.58 245.602C603.616 251.652 597.169 257.315 590.914 263.074C620.85 262.842 651.667 263.385 681.253 267.976C679.649 275.894 678.354 283.973 677.196 291.964C668.527 288.084 659.085 285.568 649.952 282.996C629.358 277.195 608.321 272.774 587.958 266.281C586.741 267.861 584.433 269.075 583.501 270.699C582.924 271.704 583.927 275.793 583.645 277.311C582.906 281.291 580.167 285.98 578.525 289.694C582.63 290.733 586.204 292.634 588.84 295.999C591.474 299.36 592.586 303.688 591.979 307.886C591.308 312.526 588.348 316.756 584.58 319.523C579.257 323.431 573.315 324.008 566.97 323.051C562.019 334.124 556.356 341.866 547.417 350.14C567.562 368.524 578.701 385.026 586.08 411.379C595.522 445.095 596.449 480.427 595.792 515.167C595.696 520.267 596.402 530.767 594.022 534.907C592.357 535.476 592.216 533.649 590.158 534.168C587.151 534.925 584.159 536.363 581.124 537.224C571.802 539.867 562.403 542.015 552.848 543.661C516.174 549.976 472.639 550.148 436.06 543.163C429.863 541.98 423.194 540.806 417.347 538.431C422.867 538.368 428.526 539.171 434.025 539.667C444.454 540.606 454.864 541.584 465.338 541.859C494.016 542.613 522.766 542.38 551.26 538.708C564.891 536.952 578.284 533.941 591.82 531.645C591.953 488.895 589.728 421.941 568.635 384.166C562.053 372.379 552.683 362.699 543.559 352.836C534.195 358.833 524.222 362.56 513.14 364.137C495.555 366.638 469.561 364.883 454.989 354.045C442.313 344.619 437.601 332.888 435.553 318.004C431.522 317.124 427.344 317.225 423.224 316.25C386.607 307.59 351.489 291.218 322.835 267.026C319.251 274.15 315.177 280.9 309.88 286.928C323.726 305.206 335.478 317.987 353.292 332.716C362.88 340.347 373.06 347.31 383.483 353.786C393.333 359.905 403.276 365.545 412.792 372.204C415.6 363.565 418.086 355.413 425.857 349.873C416.165 374.998 409.552 402.101 407.399 428.927C406.895 435.226 406.6 441.534 406.433 447.849C406.312 452.407 406.597 457.368 405.704 461.826C405.866 461.883 406.027 461.943 406.189 461.997C412.37 464.066 417.417 463.785 423.281 461.031C423.352 460.828 423.418 460.623 423.494 460.422C423.598 460.144 423.713 459.871 423.821 459.595C423.876 459.454 423.925 459.312 423.983 459.172C424.363 458.259 424.832 457.681 425.626 457.08C429.401 454.224 433.779 451.905 437.737 449.267C444.439 444.799 450.93 439.881 457.132 434.762C465.472 427.879 492.95 401.109 501.24 398.242C502.494 397.808 503.464 398.007 504.586 398.608L504.557 399.528C502.184 402.428 493.952 407.26 490.208 410.401C480.292 418.715 471.213 427.965 461.35 436.329C451.012 445.095 439.748 452.534 428.199 459.64C431.172 468.401 434.124 477.296 436.545 486.221C453.709 483.068 470.364 480.492 486.931 474.779C512.526 465.952 542.142 450.209 557.746 427.764C559.957 424.585 560.883 421.043 562.735 417.731C563.307 416.708 563.919 416.555 564.997 416.227C566.084 416.583 566.128 416.636 566.805 417.549C566.968 418.778 566.855 419.777 566.533 420.979C561.6 439.442 537.817 456.512 521.58 465.718C498.02 479.074 476.688 484.705 450.22 489.225C445.833 489.975 438.792 492.078 434.572 490.742C432.63 490.127 431.921 488.499 431.039 486.852C421.513 490.817 410.682 492.528 402.058 498.124C404.201 508.233 406.677 518.438 408.505 528.596C408.919 530.897 409.711 535.098 408.068 537.039C407.61 537.58 407.197 537.41 406.54 537.443C402.09 534.449 401.35 503.179 398.205 500.115C395.062 499.987 391.667 501.724 388.499 502.039C385.457 502.341 380.425 501.89 378.073 499.877C377.004 498.961 376.571 497.861 376.6 496.484C376.673 492.925 380.466 490.445 382.974 488.473C380.026 488.897 376.546 489.586 373.647 488.731C372.201 488.304 370.616 487.381 370.011 485.943C369.594 484.953 369.856 484.14 370.347 483.239C373.376 477.678 387.014 473.546 392.92 471.734C389.161 469.296 384.348 468.07 381.009 465.071C380.021 464.183 379.083 463.047 379.252 461.643C379.408 460.341 380.524 459.13 381.626 458.475C386.456 455.609 395.314 457.722 400.421 458.763C400.275 428.935 403.421 404.459 411.916 375.818C405.54 372.659 399.197 369.451 392.927 366.091C362.475 349.769 335.292 330.349 313.979 303.075C310.242 298.291 305.292 292.576 303.559 286.794L307.198 282.563C303.825 283.733 300.495 284.835 296.863 284.252C293.798 283.76 291.248 282.07 289.515 279.545C287.072 275.986 286.378 271.49 287.148 267.332C278.866 270.586 270.992 273.875 263.478 278.695C258.924 281.616 254.767 285.145 250.116 287.898L249.647 288.17C249.247 287.741 248.852 287.309 248.476 286.857C246.297 284.235 242.388 278.874 242.716 275.418C246.565 271.36 264.264 262.774 270.121 259.516C276.218 256.123 282.174 252.495 288.297 249.149C287.803 248.631 287.324 248.1 286.854 247.56C284.22 244.532 281.888 240.061 282.383 235.943C282.563 234.45 283.199 232.991 284.567 232.189C285.728 231.507 287.143 231.464 288.434 231.731C294.531 232.991 298.487 240.038 301.436 244.832C307.97 241.953 314.04 237.887 320.322 234.493C341.61 222.989 421.348 192.608 443.372 199.814C444.758 200.267 445.303 200.791 445.901 202.075C445.847 202.721 445.749 203.259 445.427 203.836C443.541 207.221 439.194 210.024 435.821 211.862C427.319 216.494 417.584 219.637 408.556 223.167C397.985 227.3 387.288 231.016 376.606 234.854C356.089 242.225 335.724 249.237 314.518 254.511C316.632 256.489 320.056 262.26 322.565 262.859C322.932 262.614 323.296 262.364 323.672 262.133C324.049 261.901 324.834 261.441 325.273 261.437C326.045 261.43 334.158 268.135 335.51 269.104C365.506 290.598 399.31 305.193 435.265 313.822C439.691 281.024 460.165 248.562 482.655 224.694C481.755 222.812 480.312 219.919 480.296 217.828C480.27 214.453 483.42 216.9 484.816 215.209C485.858 213.948 486.666 211.358 487.37 209.84C493.947 195.657 498.816 181.654 503.487 166.77C505.023 161.882 507.138 156.773 508.121 151.78C508.499 149.86 508.604 147.733 508.071 145.831C505.634 137.108 492.184 133.708 490.401 115.157C489.568 106.486 492.359 98.1421 497.978 91.4601C504.47 83.7386 514.248 78.0768 524.468 77.1761C534.855 76.2605 545.328 78.4573 553.444 85.113C561.293 79.6885 570.527 77.3703 579.999 76.8519Z" fill="#65171D"/>
<path d="M386.018 460.367C396.899 459.405 398.919 463.055 407.794 466.243C413.142 468.164 418.824 466.373 423.745 464.149C424.867 470.286 427.122 476.166 428.816 482.169C423.088 483.866 417.081 485.689 411.582 487.993C402.558 491.776 396.533 496.345 386.188 496.451C384.03 496.151 382.248 495.495 380.255 494.687C385.809 488.855 392.684 486.597 399.233 482.253C393.267 482.699 383.113 485.652 377.491 483.881C376.573 483.592 376.551 483.584 376.123 482.699C378.254 476.415 397.859 476.975 401.191 474.591C401.773 470.535 385.945 464.198 385.255 461.125L386.018 460.367Z" fill="#FFEEDF"/>
<path d="M435.557 202.511C437.166 202.42 439.529 202.19 440.92 203.069C440.938 205.707 434.261 208.472 431.951 209.403C418.272 214.917 403.139 217.548 389.038 222.018C372.315 227.32 355.88 234.034 339.476 240.235C328.438 244.407 316.825 248.042 306.173 253.06C304.759 253.726 302.98 254.456 302.167 255.825C304.007 256.957 307.265 256.016 309.326 255.653C312.573 258.489 314.858 261.419 317.173 265.027C314.991 269.828 311.876 274.181 308.839 278.485C305.609 279.572 302.09 280.686 298.642 280.176C296.285 279.827 294.256 278.686 292.867 276.76C289.773 272.467 290.518 266.725 291.392 261.863C276.652 265.073 261.748 273.315 250.388 282.95C248.091 281.846 246.591 278.449 245.401 276.3C260.766 268.644 277.064 261.203 291.079 251.316C292.982 253.084 295.46 255.487 297.982 256.277L298.701 255.707C298.8 255.144 298.846 255.039 298.809 254.403C298.53 249.75 290.84 246.829 287.656 244.29C286.059 243.015 284.589 241.422 284.529 239.289C284.485 237.762 284.862 236.413 285.998 235.359C291.992 234.54 298.356 247.13 303.252 250.305C303.383 249.359 302.526 248.194 302.097 247.328C312.144 242.808 321.741 237.436 331.789 232.913C360.121 220.162 404.379 203.967 435.557 202.511Z" fill="#FFEEDF"/>
<path d="M510.89 156.01C511.729 156.07 512.548 156.166 513.381 156.287C520.444 157.31 527.611 159.667 534.384 161.87C569.853 173.4 599.951 195.052 622.025 224.67C613.364 237.078 599.669 247.799 589.82 259.417C586.574 262.272 582.923 264.533 579.811 267.586C560.228 259.938 542.178 248.226 524.51 237.072C512.485 229.48 500.491 221.119 486.834 216.639C490.085 208.871 494.379 201.5 497.686 193.729C502.918 181.429 506.811 168.711 510.89 156.01Z" fill="#FFEEDF"/>
<path d="M483.172 225.953C488.03 230.855 490.705 237.732 496.571 242.692C507.328 251.787 521.271 257.09 533.807 263.272C548.369 270.452 561.278 278.525 577.368 282.469C576.773 284.941 575.975 287.39 575.257 289.83C572.365 290.506 569.502 291.151 567.562 293.55C566.275 295.144 565.64 296.929 565.864 298.955L566.434 299.379C569.093 297.691 572.49 295.048 575.645 294.456C577.866 294.039 580.591 295.439 582.251 296.773C584.603 298.661 586.37 301.46 586.656 304.472C586.95 307.573 585.2 311.448 583.102 313.7C575.732 321.609 567.882 316.631 559.85 316.787L559.656 317.377C560.98 319.285 562.796 320.604 564.596 322.051C560.09 329.059 555.613 335.006 549.497 340.786C537.595 350.948 524.571 356.374 508.853 357.738C489.929 359.379 467.694 356.637 452.743 344.027C445.309 337.757 440.307 328.54 439.595 318.894C438.911 309.629 441.434 300.403 444.383 291.692C452.661 267.243 466.057 245.382 483.172 225.953Z" fill="#FFEEDF"/>
<path d="M507.373 281.211L508.761 281.516L509.248 282.476C509.068 285.091 507.743 287.58 506.737 289.984C505.906 289.418 505.716 289.154 505.4 288.181C504.705 286.035 506.272 282.977 507.373 281.211Z" fill="#65171D"/>
<path d="M574.451 300.102C575.695 300.461 576.575 300.892 577.368 301.947C578.443 303.377 578.827 305.075 578.525 306.825C578.048 309.585 576.676 311.18 574.391 312.722C573.552 312.836 572.771 312.816 571.924 312.782L571.534 312.224C577.107 303.224 572.638 305.312 574.451 300.102Z" fill="#65171D"/>
<path d="M529.142 287.709L530.354 288.086C530.841 288.847 530.975 288.918 531.051 289.878C531.416 294.447 528.549 299.256 525.664 302.588L524.922 302.68C524.542 302.217 524.418 301.917 524.353 301.319C523.789 296.097 525.964 291.704 529.142 287.709Z" fill="#65171D"/>
<path d="M475.774 258.165C476.738 258.08 477.711 257.994 478.681 258C483.541 258.029 486.21 260.537 489.354 263.779C486.488 262.78 484.786 261.639 481.61 261.863C476.842 262.2 473.784 265.305 470.76 268.585C468.327 271.756 466.907 275.618 464.939 279.087C464.966 275.785 465.319 272.688 466.374 269.549C468.084 264.468 470.878 260.618 475.774 258.165Z" fill="#65171D"/>
<path d="M525.366 265.65C529.037 265.507 531.642 265.899 534.614 268.17C542.151 273.927 544.338 285.402 545.68 294.079C543.808 290.983 542.17 287.757 540.492 284.557C538.463 281.604 536.344 278.98 533.414 276.83C529.055 273.629 525.41 274.108 520.388 274.714C518.092 274.991 515.444 275.369 513.511 273.873C513.305 272.948 513.211 272.739 513.732 271.874C515.93 268.229 521.435 266.588 525.366 265.65Z" fill="#65171D"/>
<path d="M481.085 234.093C482.969 234.07 484.67 234.167 486.396 234.988C491.458 237.398 494.204 243.392 495.817 248.421C497.066 252.318 499.656 264.053 497.824 267.5C496.834 267.149 496.684 266.313 496.211 265.42C493.315 258.721 488.815 249.24 483.358 244.315C481.262 242.424 478.498 241.357 476.417 239.434C475.421 238.514 475.091 237.774 475.057 236.453C476.496 234.722 478.976 234.436 481.085 234.093Z" fill="#65171D"/>
<path d="M484.183 272.775C484.703 272.915 485.175 273.187 485.659 273.419C488.823 279.098 473.97 293.415 475.162 298.131C477.103 300.051 481.67 299.776 484.282 299.972L484.367 299.604C485.33 295.588 487.506 285.943 491.072 283.744C492.247 283.899 492.208 284.05 492.993 284.953C493.447 286.424 492.872 287.768 492.471 289.195C490.916 293.094 489.563 297.865 487.337 301.408C486.229 303.17 484.248 304.169 482.213 304.494C479.343 304.953 475.977 304.187 473.621 302.5C471.737 301.15 470.389 299.256 470.127 296.942C469.487 291.301 480.546 277.204 484.183 272.775Z" fill="#65171D"/>
<path d="M514.737 312.038L515.483 312.303C516.688 313.901 516.562 315.342 516.453 317.259C515.916 326.601 513.14 336.702 505.637 343.032C500.744 347.16 494.53 348.109 488.306 347.666C479.042 347.007 471.545 343.668 465.438 336.728C462.051 332.071 461.043 327.17 461.026 321.573C460.293 320.842 459.548 320.111 458.856 319.34C457.922 318.299 457.491 317.549 457.577 316.165L458.354 315.685C461.167 316.815 463.787 318.289 466.69 319.221C482.982 324.454 500.029 319.349 514.737 312.038Z" fill="#65171D"/>
<path d="M499.015 324.539L499.499 324.619C499.346 326.218 497.264 328.026 496.097 329.173C491.25 333.933 484.612 338.259 477.491 338.048C473.709 337.937 471.197 336.421 468.623 333.818C466.597 330.811 465.753 328.059 465.021 324.586C476.571 328.663 487.32 327.622 499.015 324.539Z" fill="#FFEEDF"/>
</svg>
