<svg width="41" height="19" viewBox="0 0 41 19" fill="none" xmlns="http://www.w3.org/2000/svg">
<path d="M13.6797 1.07847V0L12.1598 0V1.07847H13.6797Z" fill="#450B1D"/>
<path d="M15.2002 4.31367V3.2352H13.6801V2.15674H12.1602V3.2352H10.6401V4.31367H12.1602V5.39194H13.6801V4.31367H15.2002Z" fill="#450B1D"/>
<path d="M15.2002 2.15664V1.07837H13.6801V2.15664H15.2002Z" fill="#450B1D"/>
<path d="M12.1611 2.15664V1.07837H10.641V2.15664H12.1611Z" fill="#450B1D"/>
<path d="M15.2002 6.47056V5.39209H13.6801V6.47056H15.2002Z" fill="#450B1D"/>
<path d="M16.7197 3.2352V2.15674H15.1999V3.2352H16.7197Z" fill="#450B1D"/>
<path d="M10.6396 3.2352V2.15674H9.11952V3.2352H10.6396Z" fill="#450B1D"/>
<path d="M16.7197 5.39199V4.31372H15.1999V5.39199H16.7197Z" fill="#450B1D"/>
<path d="M18.2412 4.31382V3.23535H16.7211V4.31382H18.2412Z" fill="#450B1D"/>
<path d="M9.11914 4.31382V3.23535H7.59901V4.31382H9.11914Z" fill="#450B1D"/>
<path d="M10.6396 5.39199V4.31372H9.11952V5.39199H10.6396Z" fill="#450B1D"/>
<path d="M12.1611 6.47056V5.39209H10.641V6.47056H12.1611Z" fill="#450B1D"/>
<path d="M13.6797 7.54873V6.47046H12.1598V7.54873H13.6797Z" fill="#450B1D"/>
<path d="M13.6797 11.8624V10.7839H12.1598V11.8624H13.6797Z" fill="#450B1D"/>
<path d="M15.2002 15.0974V14.0191H13.6801V12.9407H12.1602V14.0191H10.6401V15.0974H12.1602V16.1759H13.6801V15.0974H15.2002Z" fill="#450B1D"/>
<path d="M15.2002 12.9406V11.8623H13.6801V12.9406H15.2002Z" fill="#450B1D"/>
<path d="M12.1611 12.9406V11.8623H10.641V12.9406H12.1611Z" fill="#450B1D"/>
<path d="M15.2002 17.2541V16.1758H13.6801V17.2541H15.2002Z" fill="#450B1D"/>
<path d="M16.7197 14.0191V12.9407H15.1999V14.0191H16.7197Z" fill="#450B1D"/>
<path d="M10.6396 14.0191V12.9407H9.11952V14.0191H10.6396Z" fill="#450B1D"/>
<path d="M16.7197 16.1759V15.0974H15.1999V16.1759H16.7197Z" fill="#450B1D"/>
<path d="M18.2412 15.0976V14.0193H16.7211V15.0976H18.2412Z" fill="#450B1D"/>
<path d="M9.11914 15.0976V14.0193H7.59901V15.0976H9.11914Z" fill="#450B1D"/>
<path d="M10.6396 16.1759V15.0974H9.11952V16.1759H10.6396Z" fill="#450B1D"/>
<path d="M12.1611 17.2541V16.1758H10.641V17.2541H12.1611Z" fill="#450B1D"/>
<path d="M13.6797 18.3326V17.2542H12.1598V18.3326H13.6797Z" fill="#450B1D"/>
<path d="M6.08008 6.47056V5.39209H4.56022V6.47056H6.08008Z" fill="#450B1D"/>
<path d="M7.60059 9.70532V8.62705H6.08073V7.54858H4.56088V8.62705H3.04074V9.70532H4.56088V10.7838H6.08073V9.70532H7.60059Z" fill="#450B1D"/>
<path d="M7.60059 7.54873V6.47046H6.08073V7.54873H7.60059Z" fill="#450B1D"/>
<path d="M4.56055 7.54873V6.47046H3.04041V7.54873H4.56055Z" fill="#450B1D"/>
<path d="M7.60059 11.8624V10.7839H6.08073V11.8624H7.60059Z" fill="#450B1D"/>
<path d="M9.11914 8.62705V7.54858H7.59901V8.62705H9.11914Z" fill="#450B1D"/>
<path d="M3.03906 8.62705V7.54858H1.51921L1.51921 8.62705H3.03906Z" fill="#450B1D"/>
<path d="M9.11914 10.784V9.70557H7.59901V10.784H9.11914Z" fill="#450B1D"/>
<path d="M10.6396 9.70547V8.6272H9.11952V9.70547H10.6396Z" fill="#450B1D"/>
<path d="M1.52051 9.70547L1.52051 8.6272H0.000387073L0.000387073 9.70547H1.52051Z" fill="#450B1D"/>
<path d="M3.03906 10.784V9.70557H1.51921L1.51921 10.784H3.03906Z" fill="#450B1D"/>
<path d="M4.56055 11.8624V10.7839H3.04041V11.8624H4.56055Z" fill="#450B1D"/>
<path d="M6.08008 12.9406V11.8623H4.56022V12.9406H6.08008Z" fill="#450B1D"/>
<path d="M21.2803 6.47056V5.39209H19.7601V6.47056H21.2803Z" fill="#450B1D"/>
<path d="M22.8008 9.70532V8.62705H21.2809V7.54858H19.7608V8.62705H18.2409V9.70532H19.7608V10.7838H21.2809V9.70532H22.8008Z" fill="#450B1D"/>
<path d="M22.8008 7.54873V6.47046H21.2809V7.54873H22.8008Z" fill="#450B1D"/>
<path d="M19.7598 7.54873V6.47046H18.2399V7.54873H19.7598Z" fill="#450B1D"/>
<path d="M22.8008 11.8624V10.7839H21.2809V11.8624H22.8008Z" fill="#450B1D"/>
<path d="M24.3203 8.62705V7.54858H22.8002V8.62705H24.3203Z" fill="#450B1D"/>
<path d="M18.2412 8.62705V7.54858H16.7211V8.62705H18.2412Z" fill="#450B1D"/>
<path d="M24.3203 10.784V9.70557H22.8002V10.784H24.3203Z" fill="#450B1D"/>
<path d="M25.8398 9.70547V8.6272H24.3197V9.70547H25.8398Z" fill="#450B1D"/>
<path d="M16.7197 9.70547V8.6272H15.1999V9.70547H16.7197Z" fill="#450B1D"/>
<path d="M18.2412 10.784V9.70557H16.7211V10.784H18.2412Z" fill="#450B1D"/>
<path d="M19.7598 11.8624V10.7839H18.2399V11.8624H19.7598Z" fill="#450B1D"/>
<path d="M21.2803 12.9406V11.8623H19.7601V12.9406H21.2803Z" fill="#450B1D"/>
<path d="M28.8398 1.07847V0L27.32 0V1.07847H28.8398Z" fill="#450B1D"/>
<path d="M30.3604 4.31367V3.2352H28.8402V2.15674H27.3204V3.2352H25.8002V4.31367H27.3204V5.39194H28.8402V4.31367H30.3604Z" fill="#450B1D"/>
<path d="M30.3604 2.15664V1.07837H28.8402V2.15664H30.3604Z" fill="#450B1D"/>
<path d="M27.3203 2.15664V1.07837H25.8002V2.15664H27.3203Z" fill="#450B1D"/>
<path d="M30.3604 6.47056V5.39209H28.8402V6.47056H30.3604Z" fill="#450B1D"/>
<path d="M31.8799 3.2352V2.15674H30.36V3.2352H31.8799Z" fill="#450B1D"/>
<path d="M25.7998 3.2352V2.15674H24.2797V3.2352H25.7998Z" fill="#450B1D"/>
<path d="M31.8799 5.39199V4.31372H30.36V5.39199H31.8799Z" fill="#450B1D"/>
<path d="M33.3994 4.31382V3.23535H31.8793V4.31382H33.3994Z" fill="#450B1D"/>
<path d="M24.2793 4.31382V3.23535H22.7594V4.31382H24.2793Z" fill="#450B1D"/>
<path d="M25.7998 5.39199V4.31372H24.2797V5.39199H25.7998Z" fill="#450B1D"/>
<path d="M27.3203 6.47056V5.39209H25.8002V6.47056H27.3203Z" fill="#450B1D"/>
<path d="M28.8398 7.54873V6.47046H27.32V7.54873H28.8398Z" fill="#450B1D"/>
<path d="M28.8398 11.8624V10.7839H27.32V11.8624H28.8398Z" fill="#450B1D"/>
<path d="M30.3604 15.0974V14.0191H28.8402V12.9407H27.3204V14.0191H25.8002V15.0974H27.3204V16.1759H28.8402V15.0974H30.3604Z" fill="#450B1D"/>
<path d="M30.3604 12.9406V11.8623H28.8402V12.9406H30.3604Z" fill="#450B1D"/>
<path d="M27.3203 12.9406V11.8623H25.8002V12.9406H27.3203Z" fill="#450B1D"/>
<path d="M30.3604 17.2541V16.1758H28.8402V17.2541H30.3604Z" fill="#450B1D"/>
<path d="M31.8799 14.0191V12.9407H30.36V14.0191H31.8799Z" fill="#450B1D"/>
<path d="M25.7998 14.0191V12.9407H24.2797V14.0191H25.7998Z" fill="#450B1D"/>
<path d="M31.8799 16.1759V15.0974H30.36V16.1759H31.8799Z" fill="#450B1D"/>
<path d="M33.3994 15.0976V14.0193H31.8793V15.0976H33.3994Z" fill="#450B1D"/>
<path d="M24.2793 15.0976V14.0193H22.7594V15.0976H24.2793Z" fill="#450B1D"/>
<path d="M25.7998 16.1759V15.0974H24.2797V16.1759H25.7998Z" fill="#450B1D"/>
<path d="M27.3203 17.2541V16.1758H25.8002V17.2541H27.3203Z" fill="#450B1D"/>
<path d="M28.8398 18.3326V17.2542H27.32V18.3326H28.8398Z" fill="#450B1D"/>
<path d="M36.4395 6.47056V5.39209H34.9193V6.47056H36.4395Z" fill="#450B1D"/>
<path d="M37.959 9.70532V8.62705H36.4391V7.54858H34.919V8.62705H33.3991V9.70532H34.919V10.7838H36.4391V9.70532H37.959Z" fill="#450B1D"/>
<path d="M37.959 7.54873V6.47046H36.4391V7.54873H37.959Z" fill="#450B1D"/>
<path d="M34.9199 7.54873V6.47046H33.4001V7.54873H34.9199Z" fill="#450B1D"/>
<path d="M37.959 11.8624V10.7839H36.4391V11.8624H37.959Z" fill="#450B1D"/>
<path d="M39.4795 8.62705V7.54858H37.9594V8.62705H39.4795Z" fill="#450B1D"/>
<path d="M33.3994 8.62705V7.54858H31.8793V8.62705H33.3994Z" fill="#450B1D"/>
<path d="M39.4795 10.784V9.70557H37.9594V10.784H39.4795Z" fill="#450B1D"/>
<path d="M41 9.70547V8.6272H39.4799V9.70547H41Z" fill="#450B1D"/>
<path d="M31.8799 9.70547V8.6272H30.36V9.70547H31.8799Z" fill="#450B1D"/>
<path d="M33.3994 10.784V9.70557H31.8793V10.784H33.3994Z" fill="#450B1D"/>
<path d="M34.9199 11.8624V10.7839H33.4001V11.8624H34.9199Z" fill="#450B1D"/>
<path d="M36.4395 12.9406V11.8623H34.9193V12.9406H36.4395Z" fill="#450B1D"/>
</svg>
